<?xml version="1.0" standalone="yes"?>

<svg version="1.1" viewBox="0.0 0.0 960.0 720.0" fill="none" stroke="none" stroke-linecap="square" stroke-miterlimit="10" xmlns="http://www.w3.org/2000/svg" xmlns:xlink="http://www.w3.org/1999/xlink"><clipPath id="g247c9257d7_0_0.0"><path d="m0 0l960.0 0l0 720.0l-960.0 0l0 -720.0z" clip-rule="nonzero"></path></clipPath><g clip-path="url(#g247c9257d7_0_0.0)"><path fill="#ffffff" d="m0 0l960.0 0l0 720.0l-960.0 0z" fill-rule="evenodd"></path><path fill="#000000" fill-opacity="0.0" d="m635.0551 162.95801l31.40155 0l0 39.496063l-31.40155 0z" fill-rule="evenodd"></path><path stroke="#595959" stroke-width="8.0" stroke-linejoin="round" stroke-linecap="butt" d="m635.0551 162.95801l31.40155 0l0 39.496063l-31.40155 0z" fill-rule="evenodd"></path><path fill="#ffffff" d="m293.5433 96.04462l341.5118 0l0 173.32285l-341.5118 0z" fill-rule="evenodd"></path><path stroke="#595959" stroke-width="8.0" stroke-linejoin="round" stroke-linecap="butt" d="m293.5433 96.04462l341.5118 0l0 173.32285l-341.5118 0z" fill-rule="evenodd"></path><path fill="#999999" d="m312.44882 112.83202l165.07086 0l0 139.74802l-165.07086 0z" fill-rule="evenodd"></path><path stroke="#595959" stroke-width="8.0" stroke-linejoin="round" stroke-linecap="butt" d="m312.44882 112.83202l165.07086 0l0 139.74802l-165.07086 0z" fill-rule="evenodd"></path><path fill="#eeeeee" d="m231.76903 446.1496c40.925186 -114.590546 200.53346 0 0 147.33069c-200.53346 -147.33069 -40.9252 -261.92123 0 -147.33069z" fill-rule="evenodd"></path><path stroke="#595959" stroke-width="8.0" stroke-linejoin="round" stroke-linecap="butt" d="m231.76903 446.1496c40.925186 -114.590546 200.53346 0 0 147.33069c-200.53346 -147.33069 -40.9252 -261.92123 0 -147.33069z" fill-rule="evenodd"></path><path fill="#eeeeee" d="m480.0 446.1496c40.92517 -114.590546 200.53345 0 0 147.33069c-200.53348 -147.33069 -40.9252 -261.92123 0 -147.33069z" fill-rule="evenodd"></path><path stroke="#595959" stroke-width="8.0" stroke-linejoin="round" stroke-linecap="butt" d="m480.0 446.1496c40.92517 -114.590546 200.53345 0 0 147.33069c-200.53348 -147.33069 -40.9252 -261.92123 0 -147.33069z" fill-rule="evenodd"></path><path fill="#eeeeee" d="m728.23096 446.1496c40.925232 -114.590546 200.53351 0 0 147.33069c-200.53345 -147.33069 -40.92517 -261.92123 0 -147.33069z" fill-rule="evenodd"></path><path stroke="#595959" stroke-width="8.0" stroke-linejoin="round" stroke-linecap="butt" d="m728.23096 446.1496c40.925232 -114.590546 200.53351 0 0 147.33069c-200.53345 -147.33069 -40.92517 -261.92123 0 -147.33069z" fill-rule="evenodd"></path></g></svg>

