<?xml version="1.0" standalone="yes"?>

<svg version="1.1" viewBox="0.0 0.0 960.0 720.0" fill="none" stroke="none" stroke-linecap="square" stroke-miterlimit="10" xmlns="http://www.w3.org/2000/svg" xmlns:xlink="http://www.w3.org/1999/xlink"><clipPath id="g251f6f7a4a_0_11.0"><path d="m0 0l960.0 0l0 720.0l-960.0 0l0 -720.0z" clip-rule="nonzero"></path></clipPath><g clip-path="url(#g251f6f7a4a_0_11.0)"><path fill="#ffffff" d="m0 0l960.0 0l0 720.0l-960.0 0z" fill-rule="evenodd"></path><path fill="#eeeeee" d="m231.76903 446.1496c40.925186 -114.590546 200.53346 0 0 147.33069c-200.53346 -147.33069 -40.9252 -261.92123 0 -147.33069z" fill-rule="evenodd"></path><path stroke="#595959" stroke-width="8.0" stroke-linejoin="round" stroke-linecap="butt" d="m231.76903 446.1496c40.925186 -114.590546 200.53346 0 0 147.33069c-200.53346 -147.33069 -40.9252 -261.92123 0 -147.33069z" fill-rule="evenodd"></path><path fill="#eeeeee" d="m480.0 446.1496c40.92517 -114.590546 200.53345 0 0 147.33069c-200.53348 -147.33069 -40.9252 -261.92123 0 -147.33069z" fill-rule="evenodd"></path><path stroke="#595959" stroke-width="8.0" stroke-linejoin="round" stroke-linecap="butt" d="m480.0 446.1496c40.92517 -114.590546 200.53345 0 0 147.33069c-200.53348 -147.33069 -40.9252 -261.92123 0 -147.33069z" fill-rule="evenodd"></path><path fill="#eeeeee" d="m728.23096 446.1496c40.925232 -114.590546 200.53351 0 0 147.33069c-200.53345 -147.33069 -40.92517 -261.92123 0 -147.33069z" fill-rule="evenodd"></path><path stroke="#595959" stroke-width="8.0" stroke-linejoin="round" stroke-linecap="butt" d="m728.23096 446.1496c40.925232 -114.590546 200.53351 0 0 147.33069c-200.53345 -147.33069 -40.92517 -261.92123 0 -147.33069z" fill-rule="evenodd"></path></g></svg>

