<?xml version="1.0" standalone="yes"?>

<svg version="1.1" viewBox="0.0 0.0 960.0 720.0" fill="none" stroke="none" stroke-linecap="square" stroke-miterlimit="10" xmlns="http://www.w3.org/2000/svg" xmlns:xlink="http://www.w3.org/1999/xlink"><clipPath id="g251f6f7a4a_0_66.0"><path d="m0 0l960.0 0l0 720.0l-960.0 0l0 -720.0z" clip-rule="nonzero"></path></clipPath><g clip-path="url(#g251f6f7a4a_0_66.0)"><path fill="#ffffff" d="m0 0l960.0 0l0 720.0l-960.0 0z" fill-rule="evenodd"></path><path fill="#eeeeee" d="m251.88977 75.17647l0 0c0 -16.94867 13.7395935 -30.688278 30.688263 -30.688278l394.8439 0c8.139038 0 15.944763 3.2332191 21.69989 8.988388c5.755188 5.755169 8.988403 13.560852 8.988403 21.69989l0 122.74942c0 16.94867 -13.739624 30.688278 -30.688293 30.688278l-394.8439 0l0 0c-16.94867 0 -30.688263 -13.739609 -30.688263 -30.688278z" fill-rule="evenodd"></path><path stroke="#595959" stroke-width="1.0" stroke-linejoin="round" stroke-linecap="butt" d="m251.88977 75.17647l0 0c0 -16.94867 13.7395935 -30.688278 30.688263 -30.688278l394.8439 0c8.139038 0 15.944763 3.2332191 21.69989 8.988388c5.755188 5.755169 8.988403 13.560852 8.988403 21.69989l0 122.74942c0 16.94867 -13.739624 30.688278 -30.688293 30.688278l-394.8439 0l0 0c-16.94867 0 -30.688263 -13.739609 -30.688263 -30.688278z" fill-rule="evenodd"></path><path fill="#000000" d="m315.81216 133.64618l0 13.921875q0 3.171875 -1.578125 4.71875q-1.5625 1.546875 -4.03125 1.546875q-1.40625 0 -2.625 -0.515625q-1.203125 -0.5 -2.046875 -1.53125l1.28125 -1.71875l0.03125 -0.03125l0.03125 0.03125q0.640625 0.828125 1.421875 1.296875q0.796875 0.484375 1.875 0.484375q1.515625 0 2.40625 -1.03125q0.890625 -1.015625 0.890625 -3.125l0 -12.15625l-5.4375 0l0 -1.890625l7.78125 0zm-8.609375 16.328125q0 0.09375 -0.09375 0.0625q-0.09375 -0.03125 -0.203125 -0.109375l0.109375 -0.125l0.1875 0.125l0 0.046875zm-0.359375 0.0625q-0.09375 -0.171875 -0.0625 -0.171875q0.03125 0 0.125 0.0625l-0.0625 0.109375zm7.625 -19.46875q-0.671875 0 -1.15625 -0.46875q-0.46875 -0.484375 -0.46875 -1.15625q0 -0.703125 0.453125 -1.171875q0.46875 -0.484375 1.171875 -0.484375q0.671875 0 1.171875 0.5q0.5 0.484375 0.5 1.15625q0 0.671875 -0.5 1.15625q-0.5 0.46875 -1.171875 0.46875zm12.6094055 18.0625q-2.3125 0 -3.6875 -1.71875q-1.375 -1.71875 -1.34375 -5.109375l0.03125 -8.15625l2.234375 0l0 8.15625q0 2.625 0.90625 3.796875q0.921875 1.171875 2.421875 1.171875q1.671875 0 2.796875 -1.296875q1.140625 -1.296875 1.140625 -3.765625l0 -8.0625l2.25 0l0 12.359375q0 0.765625 0.046875 1.265625q0.046875 0.484375 0.265625 1.0l-2.203125 0q-0.21875 -0.484375 -0.28125 -0.984375q-0.046875 -0.515625 -0.046875 -1.25q-0.703125 1.203125 -1.90625 1.90625q-1.1875 0.6875 -2.625 0.6875zm10.8437805 -14.984375l2.328125 0l0 2.875q0.484375 -1.59375 1.671875 -2.390625q1.1875 -0.796875 2.78125 -0.796875q1.671875 0 3.0625 0.84375q1.390625 0.84375 2.21875 2.546875q0.828125 1.6875 0.828125 4.125q0 2.46875 -0.859375 4.25q-0.859375 1.765625 -2.296875 2.671875q-1.421875 0.890625 -3.015625 0.890625q-1.3125 0 -2.46875 -0.609375q-1.140625 -0.609375 -1.890625 -1.703125l0 7.265625l-2.359375 0l0 -19.96875zm6.328125 12.96875q1.765625 0 2.96875 -1.328125q1.203125 -1.328125 1.203125 -4.34375q0 -2.71875 -1.0625 -4.171875q-1.0625 -1.453125 -3.0 -1.453125q-1.828125 0 -2.96875 1.515625q-1.140625 1.515625 -1.140625 4.625q0.0625 2.53125 1.125 3.84375q1.0625 1.3125 2.875 1.3125zm21.921906 -12.96875q-0.1875 1.3125 -0.59375 2.59375q-0.390625 1.28125 -1.125 3.390625l-3.65625 10.296875q-0.734375 2.0625 -1.921875 2.984375q-1.171875 0.921875 -2.8125 0.921875q-2.046875 0 -3.359375 -1.25l1.0 -1.5625l0.03125 -0.03125l0.03125 0.03125q0.5 0.484375 1.078125 0.703125q0.578125 0.234375 1.34375 0.234375q1.1875 0 1.890625 -0.84375q0.703125 -0.828125 1.375 -2.75l-5.984375 -14.71875l2.40625 0l4.546875 11.71875l1.921875 -5.890625q0.703125 -2.21875 1.03125 -3.375q0.34375 -1.171875 0.5 -2.453125l2.296875 0zm-12.09375 17.25q0 0.0625 -0.0625 0.0625l-0.25 -0.0625l0.125 -0.15625l0.1875 0.125l0 0.03125zm-0.34375 0.09375q-0.171875 -0.15625 -0.09375 -0.125q0.09375 0.03125 0.125 0.03125l-0.03125 0.09375zm28.46878 -4.0625q-2.109375 1.5625 -4.640625 1.5625q-2.421875 0 -3.4375 -1.46875q-1.0 -1.46875 -1.0 -4.796875q0 -0.546875 0.0625 -1.890625l0.28125 -4.796875l-3.234375 0l0 -1.890625l3.359375 0l0.234375 -3.90625l2.5625 -0.40625l0.3125 -0.03125l0.03125 0.1875q-0.21875 0.3125 -0.34375 0.546875q-0.109375 0.21875 -0.140625 0.703125l-0.34375 2.90625l4.859375 0l0 1.890625l-4.984375 0l-0.296875 4.953125q-0.0625 1.28125 -0.0625 1.703125q0 2.5625 0.59375 3.46875q0.59375 0.90625 1.90625 0.90625q0.953125 0 1.75 -0.34375q0.8125 -0.359375 1.828125 -1.125l0.703125 1.828125zm10.5000305 1.65625q-3.265625 0 -5.203125 -1.96875q-1.9375 -1.984375 -1.9375 -5.609375q0 -2.390625 0.890625 -4.140625q0.90625 -1.75 2.421875 -2.65625q1.53125 -0.90625 3.40625 -0.90625q2.65625 0 4.296875 1.765625q1.65625 1.75 1.65625 5.171875q0 0.34375 -0.0625 1.0625l-10.390625 0q0.125 2.6875 1.5 4.0625q1.375 1.375 3.484375 1.375q2.3125 0 3.78125 -1.640625l1.28125 1.25q-1.859375 2.234375 -5.125 2.234375zm3.203125 -9.078125q0 -2.046875 -1.046875 -3.25q-1.03125 -1.203125 -2.734375 -1.203125q-1.59375 0 -2.78125 1.125q-1.1875 1.125 -1.46875 3.328125l8.03125 0zm17.71878 -2.8125l0 0.03125q-0.921875 -0.875 -1.546875 -1.15625q-0.625 -0.28125 -1.453125 -0.28125q-1.15625 0 -2.1875 0.578125q-1.015625 0.5625 -1.65625 1.734375q-0.640625 1.171875 -0.640625 2.921875l0 7.78125l-2.328125 0l0 -14.65625l2.390625 0l-0.0625 2.6875q0.609375 -1.4375 1.875 -2.234375q1.265625 -0.796875 2.765625 -0.796875q2.34375 0 3.875 1.59375l-1.03125 1.796875zm0 0.03125q0.234375 0.1875 0.109375 0.15625q-0.109375 -0.03125 -0.171875 -0.0625l0.0625 -0.09375zm-0.34375 0.09375q0 -0.09375 0.09375 -0.078125q0.09375 0.015625 0.1875 0.078125l-0.0625 0.15625l-0.21875 -0.125l0 -0.03125zm5.0625305 -9.828125l2.515625 0l0 0.21875q-0.1875 0.203125 -0.234375 0.421875q-0.046875 0.21875 -0.046875 0.765625l0 7.84375q0.859375 -1.34375 2.15625 -2.140625q1.296875 -0.796875 2.640625 -0.796875q2.078125 0 3.265625 1.46875q1.1875 1.46875 1.1875 4.640625l0 8.859375l-2.25 0l0 -8.796875q0 -2.171875 -0.734375 -3.15625q-0.734375 -1.0 -1.953125 -1.0q-1.015625 0 -2.015625 0.5625q-0.984375 0.546875 -1.640625 1.59375q-0.65625 1.03125 -0.65625 2.375l0 8.421875l-2.234375 0l0 -21.28125zm20.734406 21.640625q-2.3125 0 -3.6875 -1.71875q-1.375 -1.71875 -1.34375 -5.109375l0.03125 -8.15625l2.234375 0l0 8.15625q0 2.625 0.90625 3.796875q0.921875 1.171875 2.421875 1.171875q1.671875 0 2.796875 -1.296875q1.140625 -1.296875 1.140625 -3.765625l0 -8.0625l2.25 0l0 12.359375q0 0.765625 0.046875 1.265625q0.046875 0.484375 0.265625 1.0l-2.203125 0q-0.21875 -0.484375 -0.28125 -0.984375q-0.046875 -0.515625 -0.046875 -1.25q-0.703125 1.203125 -1.90625 1.90625q-1.1875 0.6875 -2.625 0.6875zm17.43753 0q-1.3125 0 -2.4375 -0.59375q-1.125 -0.59375 -1.890625 -1.6875l-0.796875 1.921875l-1.46875 0l0 -21.28125l2.625 0l0 0.21875q-0.1875 0.203125 -0.25 0.421875q-0.046875 0.21875 -0.046875 0.765625l0 7.484375q0.703125 -1.171875 1.90625 -1.875q1.203125 -0.703125 2.453125 -0.703125q2.75 0 4.375 1.921875q1.640625 1.90625 1.640625 5.59375q0 2.5 -0.875 4.28125q-0.859375 1.765625 -2.265625 2.65625q-1.40625 0.875 -2.96875 0.875zm-0.296875 -2.0625q1.734375 0 2.875 -1.359375q1.15625 -1.359375 1.15625 -4.265625q0 -2.8125 -1.078125 -4.234375q-1.0625 -1.421875 -2.890625 -1.421875q-1.78125 0 -2.90625 1.59375q-1.125 1.59375 -1.125 4.125q0 5.5625 3.96875 5.5625zm15.3906555 2.0625q-0.765625 0 -1.3125 -0.546875q-0.53125 -0.546875 -0.53125 -1.28125q0 -0.734375 0.53125 -1.28125q0.546875 -0.546875 1.3125 -0.546875q0.75 0 1.28125 0.546875q0.546875 0.546875 0.546875 1.28125q0 0.734375 -0.546875 1.28125q-0.53125 0.546875 -1.28125 0.546875zm11.5937805 -0.359375l0 -1.859375l3.734375 0l0 -10.90625l-3.546875 0l0 -1.859375l5.859375 0l0 12.765625l3.421875 0l0 1.859375l-9.46875 0zm4.765625 -17.703125q-0.671875 0 -1.15625 -0.46875q-0.46875 -0.484375 -0.46875 -1.15625q0 -0.703125 0.453125 -1.171875q0.46875 -0.484375 1.171875 -0.484375q0.671875 0 1.171875 0.5q0.5 0.484375 0.5 1.15625q0 0.671875 -0.5 1.15625q-0.5 0.46875 -1.171875 0.46875zm17.09378 9.09375q2.75 0.828125 3.875 1.8125q1.140625 0.96875 1.140625 2.546875q0 1.984375 -1.5625 3.28125q-1.546875 1.28125 -4.484375 1.28125q-3.71875 0 -6.203125 -2.296875l1.28125 -2.171875l0.03125 -0.03125l0.03125 0.03125q0.984375 1.28125 2.03125 1.921875q1.0625 0.640625 2.890625 0.640625q1.734375 0 2.71875 -0.625q1.0 -0.625 1.0 -1.71875q0 -0.921875 -0.8125 -1.53125q-0.796875 -0.609375 -2.875 -1.28125q-5.5 -1.5625 -5.5 -4.546875q0 -1.6875 1.390625 -2.671875q1.390625 -1.0 3.984375 -1.0q1.984375 0 3.34375 0.5625q1.359375 0.546875 2.484375 1.734375l-1.3125 1.59375l-0.03125 0.03125q-0.671875 -1.015625 -1.90625 -1.609375q-1.234375 -0.59375 -2.515625 -0.59375q-1.375 0 -2.265625 0.484375q-0.875 0.484375 -0.875 1.34375q0 0.796875 0.890625 1.46875q0.90625 0.671875 3.25 1.34375zm3.0625 -2.359375q0 -0.171875 0.265625 0.03125l-0.109375 0.125l-0.15625 -0.15625zm0.359375 -0.078125q0.09375 0.140625 0.078125 0.171875q-0.015625 0.03125 -0.078125 0q-0.0625 -0.03125 -0.09375 -0.0625l0.09375 -0.109375zm-9.0 6.765625q0 0.125 -0.28125 0l0.09375 -0.171875l0.1875 0.140625l0 0.03125zm-0.34375 0.09375q-0.09375 -0.171875 -0.0625 -0.171875q0.03125 0 0.125 0.078125l-0.0625 0.09375zm22.109406 2.453125q2.203125 0 3.8125 -1.78125l1.34375 1.5625q-2.15625 2.3125 -5.28125 2.3125q-2.109375 0 -3.78125 -0.984375q-1.65625 -1.0 -2.609375 -2.75q-0.9375 -1.75 -0.9375 -3.921875q0 -2.171875 0.9375 -3.890625q0.953125 -1.734375 2.609375 -2.71875q1.671875 -1.0 3.75 -1.0q1.75 0 3.1875 0.71875q1.453125 0.71875 2.34375 2.0l-1.4375 1.40625l-0.03125 0.03125q-0.9375 -1.21875 -1.921875 -1.703125q-0.96875 -0.5 -2.40625 -0.5q-1.25 0 -2.328125 0.6875q-1.0625 0.6875 -1.703125 1.9375q-0.640625 1.234375 -0.640625 2.875q0 1.625 0.65625 2.9375q0.65625 1.3125 1.828125 2.046875q1.171875 0.734375 2.609375 0.734375zm3.546875 -8.984375q0 -0.1875 0.296875 0.03125l-0.140625 0.125l-0.15625 -0.15625zm0.359375 -0.03125q0.15625 0.21875 0.078125 0.15625q-0.078125 -0.0625 -0.140625 -0.09375l0.0625 -0.0625zm5.187561 -10.53125l2.515625 0l0 0.21875q-0.1875 0.203125 -0.234375 0.421875q-0.046875 0.21875 -0.046875 0.765625l0 7.84375q0.859375 -1.34375 2.15625 -2.140625q1.296875 -0.796875 2.640625 -0.796875q2.078125 0 3.265625 1.46875q1.1875 1.46875 1.1875 4.640625l0 8.859375l-2.25 0l0 -8.796875q0 -2.171875 -0.734375 -3.15625q-0.734375 -1.0 -1.953125 -1.0q-1.015625 0 -2.015625 0.5625q-0.984375 0.546875 -1.640625 1.59375q-0.65625 1.03125 -0.65625 2.375l0 8.421875l-2.234375 0l0 -21.28125zm21.65625 21.53125q-1.953125 0 -3.5 -0.953125q-1.53125 -0.953125 -2.390625 -2.6875q-0.859375 -1.734375 -0.859375 -3.9375q0 -2.203125 0.859375 -3.921875q0.859375 -1.734375 2.390625 -2.703125q1.546875 -0.984375 3.5 -0.984375q1.953125 0 3.484375 0.984375q1.546875 0.96875 2.40625 2.703125q0.859375 1.71875 0.859375 3.921875q0 2.203125 -0.859375 3.9375q-0.859375 1.734375 -2.40625 2.6875q-1.53125 0.953125 -3.484375 0.953125zm0 -1.90625q1.25 0 2.21875 -0.734375q0.984375 -0.75 1.53125 -2.046875q0.5625 -1.296875 0.5625 -2.921875q0 -2.5 -1.21875 -4.078125q-1.203125 -1.59375 -3.09375 -1.59375q-1.890625 0 -3.109375 1.59375q-1.203125 1.578125 -1.203125 4.078125q0 1.625 0.546875 2.921875q0.5625 1.296875 1.53125 2.046875q0.984375 0.734375 2.234375 0.734375zm16.000061 1.90625q-1.953125 0 -3.5 -0.953125q-1.53125 -0.953125 -2.390625 -2.6875q-0.859375 -1.734375 -0.859375 -3.9375q0 -2.203125 0.859375 -3.921875q0.859375 -1.734375 2.390625 -2.703125q1.546875 -0.984375 3.5 -0.984375q1.953125 0 3.484375 0.984375q1.546875 0.96875 2.40625 2.703125q0.859375 1.71875 0.859375 3.921875q0 2.203125 -0.859375 3.9375q-0.859375 1.734375 -2.40625 2.6875q-1.53125 0.953125 -3.484375 0.953125zm0 -1.90625q1.25 0 2.21875 -0.734375q0.984375 -0.75 1.53125 -2.046875q0.5625 -1.296875 0.5625 -2.921875q0 -2.5 -1.21875 -4.078125q-1.203125 -1.59375 -3.09375 -1.59375q-1.890625 0 -3.109375 1.59375q-1.203125 1.578125 -1.203125 4.078125q0 1.625 0.546875 2.921875q0.5625 1.296875 1.53125 2.046875q0.984375 0.734375 2.234375 0.734375zm10.53125 1.65625l0 -1.859375l4.3125 0l0 -17.5625l-4.125 0l0 -1.859375l6.46875 0l0 19.421875l4.28125 0l0 1.859375l-10.9375 0zm21.078186 0.359375q-0.765625 0 -1.3125 -0.546875q-0.53125 -0.546875 -0.53125 -1.28125q0 -0.734375 0.53125 -1.28125q0.546875 -0.546875 1.3125 -0.546875q0.75 0 1.28125 0.546875q0.546875 0.546875 0.546875 1.28125q0 0.734375 -0.546875 1.28125q-0.53125 0.546875 -1.28125 0.546875zm11.59375 -0.359375l0 -1.859375l3.734375 0l0 -10.90625l-3.546875 0l0 -1.859375l5.859375 0l0 12.765625l3.421875 0l0 1.859375l-9.46875 0zm4.765625 -17.703125q-0.671875 0 -1.15625 -0.46875q-0.46875 -0.484375 -0.46875 -1.15625q0 -0.703125 0.453125 -1.171875q0.46875 -0.484375 1.171875 -0.484375q0.671875 0 1.171875 0.5q0.5 0.484375 0.5 1.15625q0 0.671875 -0.5 1.15625q-0.5 0.46875 -1.171875 0.46875zm15.640686 18.0625q-0.765625 0 -1.3125 -0.546875q-0.53125 -0.546875 -0.53125 -1.28125q0 -0.734375 0.53125 -1.28125q0.546875 -0.546875 1.3125 -0.546875q0.75 0 1.28125 0.546875q0.546875 0.546875 0.546875 1.28125q0 0.734375 -0.546875 1.28125q-0.53125 0.546875 -1.28125 0.546875zm17.09375 -0.046875q-3.265625 0 -5.203125 -1.96875q-1.9375 -1.984375 -1.9375 -5.609375q0 -2.390625 0.890625 -4.140625q0.90625 -1.75 2.421875 -2.65625q1.53125 -0.90625 3.40625 -0.90625q2.65625 0 4.296875 1.765625q1.65625 1.75 1.65625 5.171875q0 0.34375 -0.0625 1.0625l-10.390625 0q0.125 2.6875 1.5 4.0625q1.375 1.375 3.484375 1.375q2.3125 0 3.78125 -1.640625l1.28125 1.25q-1.859375 2.234375 -5.125 2.234375zm3.203125 -9.078125q0 -2.046875 -1.046875 -3.25q-1.03125 -1.203125 -2.734375 -1.203125q-1.59375 0 -2.78125 1.125q-1.1875 1.125 -1.46875 3.328125l8.03125 0z" fill-rule="nonzero"></path><path fill="#eeeeee" d="m263.937 363.87402l0 0c0 4.1421204 14.355072 7.5 32.06299 7.5c17.707916 0 32.06299 -3.3578796 32.06299 -7.5l0 45.0c0 4.1421204 -14.355072 7.5 -32.06299 7.5c-17.707916 0 -32.06299 -3.3578796 -32.06299 -7.5z" fill-rule="evenodd"></path><path fill="#f4f4f4" d="m263.937 363.87402l0 0c0 -4.142151 14.355072 -7.5 32.06299 -7.5c17.707916 0 32.06299 3.3578491 32.06299 7.5l0 0c0 4.1421204 -14.355072 7.5 -32.06299 7.5c-17.707916 0 -32.06299 -3.3578796 -32.06299 -7.5z" fill-rule="evenodd"></path><path fill="#000000" fill-opacity="0.0" d="m328.063 363.87402l0 0c0 4.1421204 -14.355072 7.5 -32.06299 7.5c-17.707916 0 -32.06299 -3.3578796 -32.06299 -7.5l0 0c0 -4.142151 14.355072 -7.5 32.06299 -7.5c17.707916 0 32.06299 3.3578491 32.06299 7.5l0 45.0c0 4.1421204 -14.355072 7.5 -32.06299 7.5c-17.707916 0 -32.06299 -3.3578796 -32.06299 -7.5l0 -45.0" fill-rule="evenodd"></path><path stroke="#595959" stroke-width="1.0" stroke-linejoin="round" stroke-linecap="butt" d="m328.063 363.87402l0 0c0 4.1421204 -14.355072 7.5 -32.06299 7.5c-17.707916 0 -32.06299 -3.3578796 -32.06299 -7.5l0 0c0 -4.142151 14.355072 -7.5 32.06299 -7.5c17.707916 0 32.06299 3.3578491 32.06299 7.5l0 45.0c0 4.1421204 -14.355072 7.5 -32.06299 7.5c-17.707916 0 -32.06299 -3.3578796 -32.06299 -7.5l0 -45.0" fill-rule="evenodd"></path><path fill="#eeeeee" d="m339.937 363.87402l0 0c0 4.1421204 14.355072 7.5 32.06299 7.5c17.707916 0 32.06299 -3.3578796 32.06299 -7.5l0 45.0c0 4.1421204 -14.355072 7.5 -32.06299 7.5c-17.707916 0 -32.06299 -3.3578796 -32.06299 -7.5z" fill-rule="evenodd"></path><path fill="#f4f4f4" d="m339.937 363.87402l0 0c0 -4.142151 14.355072 -7.5 32.06299 -7.5c17.707916 0 32.06299 3.3578491 32.06299 7.5l0 0c0 4.1421204 -14.355072 7.5 -32.06299 7.5c-17.707916 0 -32.06299 -3.3578796 -32.06299 -7.5z" fill-rule="evenodd"></path><path fill="#000000" fill-opacity="0.0" d="m404.063 363.87402l0 0c0 4.1421204 -14.355072 7.5 -32.06299 7.5c-17.707916 0 -32.06299 -3.3578796 -32.06299 -7.5l0 0c0 -4.142151 14.355072 -7.5 32.06299 -7.5c17.707916 0 32.06299 3.3578491 32.06299 7.5l0 45.0c0 4.1421204 -14.355072 7.5 -32.06299 7.5c-17.707916 0 -32.06299 -3.3578796 -32.06299 -7.5l0 -45.0" fill-rule="evenodd"></path><path stroke="#595959" stroke-width="1.0" stroke-linejoin="round" stroke-linecap="butt" d="m404.063 363.87402l0 0c0 4.1421204 -14.355072 7.5 -32.06299 7.5c-17.707916 0 -32.06299 -3.3578796 -32.06299 -7.5l0 0c0 -4.142151 14.355072 -7.5 32.06299 -7.5c17.707916 0 32.06299 3.3578491 32.06299 7.5l0 45.0c0 4.1421204 -14.355072 7.5 -32.06299 7.5c-17.707916 0 -32.06299 -3.3578796 -32.06299 -7.5l0 -45.0" fill-rule="evenodd"></path><path fill="#eeeeee" d="m415.937 363.87402l0 0c0 4.1421204 14.355072 7.5 32.06299 7.5c17.707916 0 32.06299 -3.3578796 32.06299 -7.5l0 45.0c0 4.1421204 -14.355072 7.5 -32.06299 7.5c-17.707916 0 -32.06299 -3.3578796 -32.06299 -7.5z" fill-rule="evenodd"></path><path fill="#f4f4f4" d="m415.937 363.87402l0 0c0 -4.142151 14.355072 -7.5 32.06299 -7.5c17.707916 0 32.06299 3.3578491 32.06299 7.5l0 0c0 4.1421204 -14.355072 7.5 -32.06299 7.5c-17.707916 0 -32.06299 -3.3578796 -32.06299 -7.5z" fill-rule="evenodd"></path><path fill="#000000" fill-opacity="0.0" d="m480.063 363.87402l0 0c0 4.1421204 -14.355072 7.5 -32.06299 7.5c-17.707916 0 -32.06299 -3.3578796 -32.06299 -7.5l0 0c0 -4.142151 14.355072 -7.5 32.06299 -7.5c17.707916 0 32.06299 3.3578491 32.06299 7.5l0 45.0c0 4.1421204 -14.355072 7.5 -32.06299 7.5c-17.707916 0 -32.06299 -3.3578796 -32.06299 -7.5l0 -45.0" fill-rule="evenodd"></path><path stroke="#595959" stroke-width="1.0" stroke-linejoin="round" stroke-linecap="butt" d="m480.063 363.87402l0 0c0 4.1421204 -14.355072 7.5 -32.06299 7.5c-17.707916 0 -32.06299 -3.3578796 -32.06299 -7.5l0 0c0 -4.142151 14.355072 -7.5 32.06299 -7.5c17.707916 0 32.06299 3.3578491 32.06299 7.5l0 45.0c0 4.1421204 -14.355072 7.5 -32.06299 7.5c-17.707916 0 -32.06299 -3.3578796 -32.06299 -7.5l0 -45.0" fill-rule="evenodd"></path><path fill="#eeeeee" d="m491.937 363.87402l0 0c0 4.1421204 14.355072 7.5 32.06299 7.5c17.707886 0 32.06299 -3.3578796 32.06299 -7.5l0 45.0c0 4.1421204 -14.355103 7.5 -32.06299 7.5c-17.707916 0 -32.06299 -3.3578796 -32.06299 -7.5z" fill-rule="evenodd"></path><path fill="#f4f4f4" d="m491.937 363.87402l0 0c0 -4.142151 14.355072 -7.5 32.06299 -7.5c17.707886 0 32.06299 3.3578491 32.06299 7.5l0 0c0 4.1421204 -14.355103 7.5 -32.06299 7.5c-17.707916 0 -32.06299 -3.3578796 -32.06299 -7.5z" fill-rule="evenodd"></path><path fill="#000000" fill-opacity="0.0" d="m556.063 363.87402l0 0c0 4.1421204 -14.355103 7.5 -32.06299 7.5c-17.707916 0 -32.06299 -3.3578796 -32.06299 -7.5l0 0c0 -4.142151 14.355072 -7.5 32.06299 -7.5c17.707886 0 32.06299 3.3578491 32.06299 7.5l0 45.0c0 4.1421204 -14.355103 7.5 -32.06299 7.5c-17.707916 0 -32.06299 -3.3578796 -32.06299 -7.5l0 -45.0" fill-rule="evenodd"></path><path stroke="#595959" stroke-width="1.0" stroke-linejoin="round" stroke-linecap="butt" d="m556.063 363.87402l0 0c0 4.1421204 -14.355103 7.5 -32.06299 7.5c-17.707916 0 -32.06299 -3.3578796 -32.06299 -7.5l0 0c0 -4.142151 14.355072 -7.5 32.06299 -7.5c17.707886 0 32.06299 3.3578491 32.06299 7.5l0 45.0c0 4.1421204 -14.355103 7.5 -32.06299 7.5c-17.707916 0 -32.06299 -3.3578796 -32.06299 -7.5l0 -45.0" fill-rule="evenodd"></path><path fill="#eeeeee" d="m567.937 363.87402l0 0c0 4.1421204 14.355103 7.5 32.06299 7.5c17.707886 0 32.06299 -3.3578796 32.06299 -7.5l0 45.0c0 4.1421204 -14.355103 7.5 -32.06299 7.5c-17.707886 0 -32.06299 -3.3578796 -32.06299 -7.5z" fill-rule="evenodd"></path><path fill="#f4f4f4" d="m567.937 363.87402l0 0c0 -4.142151 14.355103 -7.5 32.06299 -7.5c17.707886 0 32.06299 3.3578491 32.06299 7.5l0 0c0 4.1421204 -14.355103 7.5 -32.06299 7.5c-17.707886 0 -32.06299 -3.3578796 -32.06299 -7.5z" fill-rule="evenodd"></path><path fill="#000000" fill-opacity="0.0" d="m632.063 363.87402l0 0c0 4.1421204 -14.355103 7.5 -32.06299 7.5c-17.707886 0 -32.06299 -3.3578796 -32.06299 -7.5l0 0c0 -4.142151 14.355103 -7.5 32.06299 -7.5c17.707886 0 32.06299 3.3578491 32.06299 7.5l0 45.0c0 4.1421204 -14.355103 7.5 -32.06299 7.5c-17.707886 0 -32.06299 -3.3578796 -32.06299 -7.5l0 -45.0" fill-rule="evenodd"></path><path stroke="#595959" stroke-width="1.0" stroke-linejoin="round" stroke-linecap="butt" d="m632.063 363.87402l0 0c0 4.1421204 -14.355103 7.5 -32.06299 7.5c-17.707886 0 -32.06299 -3.3578796 -32.06299 -7.5l0 0c0 -4.142151 14.355103 -7.5 32.06299 -7.5c17.707886 0 32.06299 3.3578491 32.06299 7.5l0 45.0c0 4.1421204 -14.355103 7.5 -32.06299 7.5c-17.707886 0 -32.06299 -3.3578796 -32.06299 -7.5l0 -45.0" fill-rule="evenodd"></path><path fill="#eeeeee" d="m279.937 379.87402l0 0c0 4.1421204 14.355072 7.5 32.06299 7.5c17.707916 0 32.06299 -3.3578796 32.06299 -7.5l0 45.0c0 4.1421204 -14.355072 7.5 -32.06299 7.5c-17.707916 0 -32.06299 -3.3578796 -32.06299 -7.5z" fill-rule="evenodd"></path><path fill="#f4f4f4" d="m279.937 379.87402l0 0c0 -4.142151 14.355072 -7.5 32.06299 -7.5c17.707916 0 32.06299 3.3578491 32.06299 7.5l0 0c0 4.1421204 -14.355072 7.5 -32.06299 7.5c-17.707916 0 -32.06299 -3.3578796 -32.06299 -7.5z" fill-rule="evenodd"></path><path fill="#000000" fill-opacity="0.0" d="m344.063 379.87402l0 0c0 4.1421204 -14.355072 7.5 -32.06299 7.5c-17.707916 0 -32.06299 -3.3578796 -32.06299 -7.5l0 0c0 -4.142151 14.355072 -7.5 32.06299 -7.5c17.707916 0 32.06299 3.3578491 32.06299 7.5l0 45.0c0 4.1421204 -14.355072 7.5 -32.06299 7.5c-17.707916 0 -32.06299 -3.3578796 -32.06299 -7.5l0 -45.0" fill-rule="evenodd"></path><path stroke="#595959" stroke-width="1.0" stroke-linejoin="round" stroke-linecap="butt" d="m344.063 379.87402l0 0c0 4.1421204 -14.355072 7.5 -32.06299 7.5c-17.707916 0 -32.06299 -3.3578796 -32.06299 -7.5l0 0c0 -4.142151 14.355072 -7.5 32.06299 -7.5c17.707916 0 32.06299 3.3578491 32.06299 7.5l0 45.0c0 4.1421204 -14.355072 7.5 -32.06299 7.5c-17.707916 0 -32.06299 -3.3578796 -32.06299 -7.5l0 -45.0" fill-rule="evenodd"></path><path fill="#eeeeee" d="m355.937 379.87402l0 0c0 4.1421204 14.355072 7.5 32.06299 7.5c17.707916 0 32.06299 -3.3578796 32.06299 -7.5l0 45.0c0 4.1421204 -14.355072 7.5 -32.06299 7.5c-17.707916 0 -32.06299 -3.3578796 -32.06299 -7.5z" fill-rule="evenodd"></path><path fill="#f4f4f4" d="m355.937 379.87402l0 0c0 -4.142151 14.355072 -7.5 32.06299 -7.5c17.707916 0 32.06299 3.3578491 32.06299 7.5l0 0c0 4.1421204 -14.355072 7.5 -32.06299 7.5c-17.707916 0 -32.06299 -3.3578796 -32.06299 -7.5z" fill-rule="evenodd"></path><path fill="#000000" fill-opacity="0.0" d="m420.063 379.87402l0 0c0 4.1421204 -14.355072 7.5 -32.06299 7.5c-17.707916 0 -32.06299 -3.3578796 -32.06299 -7.5l0 0c0 -4.142151 14.355072 -7.5 32.06299 -7.5c17.707916 0 32.06299 3.3578491 32.06299 7.5l0 45.0c0 4.1421204 -14.355072 7.5 -32.06299 7.5c-17.707916 0 -32.06299 -3.3578796 -32.06299 -7.5l0 -45.0" fill-rule="evenodd"></path><path stroke="#595959" stroke-width="1.0" stroke-linejoin="round" stroke-linecap="butt" d="m420.063 379.87402l0 0c0 4.1421204 -14.355072 7.5 -32.06299 7.5c-17.707916 0 -32.06299 -3.3578796 -32.06299 -7.5l0 0c0 -4.142151 14.355072 -7.5 32.06299 -7.5c17.707916 0 32.06299 3.3578491 32.06299 7.5l0 45.0c0 4.1421204 -14.355072 7.5 -32.06299 7.5c-17.707916 0 -32.06299 -3.3578796 -32.06299 -7.5l0 -45.0" fill-rule="evenodd"></path><path fill="#eeeeee" d="m431.937 379.87402l0 0c0 4.1421204 14.355072 7.5 32.06299 7.5c17.707916 0 32.06299 -3.3578796 32.06299 -7.5l0 45.0c0 4.1421204 -14.355072 7.5 -32.06299 7.5c-17.707916 0 -32.06299 -3.3578796 -32.06299 -7.5z" fill-rule="evenodd"></path><path fill="#f4f4f4" d="m431.937 379.87402l0 0c0 -4.142151 14.355072 -7.5 32.06299 -7.5c17.707916 0 32.06299 3.3578491 32.06299 7.5l0 0c0 4.1421204 -14.355072 7.5 -32.06299 7.5c-17.707916 0 -32.06299 -3.3578796 -32.06299 -7.5z" fill-rule="evenodd"></path><path fill="#000000" fill-opacity="0.0" d="m496.063 379.87402l0 0c0 4.1421204 -14.355072 7.5 -32.06299 7.5c-17.707916 0 -32.06299 -3.3578796 -32.06299 -7.5l0 0c0 -4.142151 14.355072 -7.5 32.06299 -7.5c17.707916 0 32.06299 3.3578491 32.06299 7.5l0 45.0c0 4.1421204 -14.355072 7.5 -32.06299 7.5c-17.707916 0 -32.06299 -3.3578796 -32.06299 -7.5l0 -45.0" fill-rule="evenodd"></path><path stroke="#595959" stroke-width="1.0" stroke-linejoin="round" stroke-linecap="butt" d="m496.063 379.87402l0 0c0 4.1421204 -14.355072 7.5 -32.06299 7.5c-17.707916 0 -32.06299 -3.3578796 -32.06299 -7.5l0 0c0 -4.142151 14.355072 -7.5 32.06299 -7.5c17.707916 0 32.06299 3.3578491 32.06299 7.5l0 45.0c0 4.1421204 -14.355072 7.5 -32.06299 7.5c-17.707916 0 -32.06299 -3.3578796 -32.06299 -7.5l0 -45.0" fill-rule="evenodd"></path><path fill="#eeeeee" d="m507.937 379.87402l0 0c0 4.1421204 14.355103 7.5 32.06299 7.5c17.707886 0 32.06299 -3.3578796 32.06299 -7.5l0 45.0c0 4.1421204 -14.355103 7.5 -32.06299 7.5c-17.707886 0 -32.06299 -3.3578796 -32.06299 -7.5z" fill-rule="evenodd"></path><path fill="#f4f4f4" d="m507.937 379.87402l0 0c0 -4.142151 14.355103 -7.5 32.06299 -7.5c17.707886 0 32.06299 3.3578491 32.06299 7.5l0 0c0 4.1421204 -14.355103 7.5 -32.06299 7.5c-17.707886 0 -32.06299 -3.3578796 -32.06299 -7.5z" fill-rule="evenodd"></path><path fill="#000000" fill-opacity="0.0" d="m572.063 379.87402l0 0c0 4.1421204 -14.355103 7.5 -32.06299 7.5c-17.707886 0 -32.06299 -3.3578796 -32.06299 -7.5l0 0c0 -4.142151 14.355103 -7.5 32.06299 -7.5c17.707886 0 32.06299 3.3578491 32.06299 7.5l0 45.0c0 4.1421204 -14.355103 7.5 -32.06299 7.5c-17.707886 0 -32.06299 -3.3578796 -32.06299 -7.5l0 -45.0" fill-rule="evenodd"></path><path stroke="#595959" stroke-width="1.0" stroke-linejoin="round" stroke-linecap="butt" d="m572.063 379.87402l0 0c0 4.1421204 -14.355103 7.5 -32.06299 7.5c-17.707886 0 -32.06299 -3.3578796 -32.06299 -7.5l0 0c0 -4.142151 14.355103 -7.5 32.06299 -7.5c17.707886 0 32.06299 3.3578491 32.06299 7.5l0 45.0c0 4.1421204 -14.355103 7.5 -32.06299 7.5c-17.707886 0 -32.06299 -3.3578796 -32.06299 -7.5l0 -45.0" fill-rule="evenodd"></path><path fill="#eeeeee" d="m583.937 379.87402l0 0c0 4.1421204 14.355103 7.5 32.06299 7.5c17.707886 0 32.06299 -3.3578796 32.06299 -7.5l0 45.0c0 4.1421204 -14.355103 7.5 -32.06299 7.5c-17.707886 0 -32.06299 -3.3578796 -32.06299 -7.5z" fill-rule="evenodd"></path><path fill="#f4f4f4" d="m583.937 379.87402l0 0c0 -4.142151 14.355103 -7.5 32.06299 -7.5c17.707886 0 32.06299 3.3578491 32.06299 7.5l0 0c0 4.1421204 -14.355103 7.5 -32.06299 7.5c-17.707886 0 -32.06299 -3.3578796 -32.06299 -7.5z" fill-rule="evenodd"></path><path fill="#000000" fill-opacity="0.0" d="m648.063 379.87402l0 0c0 4.1421204 -14.355103 7.5 -32.06299 7.5c-17.707886 0 -32.06299 -3.3578796 -32.06299 -7.5l0 0c0 -4.142151 14.355103 -7.5 32.06299 -7.5c17.707886 0 32.06299 3.3578491 32.06299 7.5l0 45.0c0 4.1421204 -14.355103 7.5 -32.06299 7.5c-17.707886 0 -32.06299 -3.3578796 -32.06299 -7.5l0 -45.0" fill-rule="evenodd"></path><path stroke="#595959" stroke-width="1.0" stroke-linejoin="round" stroke-linecap="butt" d="m648.063 379.87402l0 0c0 4.1421204 -14.355103 7.5 -32.06299 7.5c-17.707886 0 -32.06299 -3.3578796 -32.06299 -7.5l0 0c0 -4.142151 14.355103 -7.5 32.06299 -7.5c17.707886 0 32.06299 3.3578491 32.06299 7.5l0 45.0c0 4.1421204 -14.355103 7.5 -32.06299 7.5c-17.707886 0 -32.06299 -3.3578796 -32.06299 -7.5l0 -45.0" fill-rule="evenodd"></path><path fill="#eeeeee" d="m295.937 395.87402l0 0c0 4.1421204 14.355072 7.5 32.06299 7.5c17.707916 0 32.06299 -3.3578796 32.06299 -7.5l0 45.0c0 4.1421204 -14.355072 7.5 -32.06299 7.5c-17.707916 0 -32.06299 -3.3578796 -32.06299 -7.5z" fill-rule="evenodd"></path><path fill="#f4f4f4" d="m295.937 395.87402l0 0c0 -4.142151 14.355072 -7.5 32.06299 -7.5c17.707916 0 32.06299 3.3578491 32.06299 7.5l0 0c0 4.1421204 -14.355072 7.5 -32.06299 7.5c-17.707916 0 -32.06299 -3.3578796 -32.06299 -7.5z" fill-rule="evenodd"></path><path fill="#000000" fill-opacity="0.0" d="m360.063 395.87402l0 0c0 4.1421204 -14.355072 7.5 -32.06299 7.5c-17.707916 0 -32.06299 -3.3578796 -32.06299 -7.5l0 0c0 -4.142151 14.355072 -7.5 32.06299 -7.5c17.707916 0 32.06299 3.3578491 32.06299 7.5l0 45.0c0 4.1421204 -14.355072 7.5 -32.06299 7.5c-17.707916 0 -32.06299 -3.3578796 -32.06299 -7.5l0 -45.0" fill-rule="evenodd"></path><path stroke="#595959" stroke-width="1.0" stroke-linejoin="round" stroke-linecap="butt" d="m360.063 395.87402l0 0c0 4.1421204 -14.355072 7.5 -32.06299 7.5c-17.707916 0 -32.06299 -3.3578796 -32.06299 -7.5l0 0c0 -4.142151 14.355072 -7.5 32.06299 -7.5c17.707916 0 32.06299 3.3578491 32.06299 7.5l0 45.0c0 4.1421204 -14.355072 7.5 -32.06299 7.5c-17.707916 0 -32.06299 -3.3578796 -32.06299 -7.5l0 -45.0" fill-rule="evenodd"></path><path fill="#eeeeee" d="m371.937 395.87402l0 0c0 4.1421204 14.355072 7.5 32.06299 7.5c17.707916 0 32.06299 -3.3578796 32.06299 -7.5l0 45.0c0 4.1421204 -14.355072 7.5 -32.06299 7.5c-17.707916 0 -32.06299 -3.3578796 -32.06299 -7.5z" fill-rule="evenodd"></path><path fill="#f4f4f4" d="m371.937 395.87402l0 0c0 -4.142151 14.355072 -7.5 32.06299 -7.5c17.707916 0 32.06299 3.3578491 32.06299 7.5l0 0c0 4.1421204 -14.355072 7.5 -32.06299 7.5c-17.707916 0 -32.06299 -3.3578796 -32.06299 -7.5z" fill-rule="evenodd"></path><path fill="#000000" fill-opacity="0.0" d="m436.063 395.87402l0 0c0 4.1421204 -14.355072 7.5 -32.06299 7.5c-17.707916 0 -32.06299 -3.3578796 -32.06299 -7.5l0 0c0 -4.142151 14.355072 -7.5 32.06299 -7.5c17.707916 0 32.06299 3.3578491 32.06299 7.5l0 45.0c0 4.1421204 -14.355072 7.5 -32.06299 7.5c-17.707916 0 -32.06299 -3.3578796 -32.06299 -7.5l0 -45.0" fill-rule="evenodd"></path><path stroke="#595959" stroke-width="1.0" stroke-linejoin="round" stroke-linecap="butt" d="m436.063 395.87402l0 0c0 4.1421204 -14.355072 7.5 -32.06299 7.5c-17.707916 0 -32.06299 -3.3578796 -32.06299 -7.5l0 0c0 -4.142151 14.355072 -7.5 32.06299 -7.5c17.707916 0 32.06299 3.3578491 32.06299 7.5l0 45.0c0 4.1421204 -14.355072 7.5 -32.06299 7.5c-17.707916 0 -32.06299 -3.3578796 -32.06299 -7.5l0 -45.0" fill-rule="evenodd"></path><path fill="#eeeeee" d="m447.937 395.87402l0 0c0 4.1421204 14.355072 7.5 32.06299 7.5c17.707916 0 32.06299 -3.3578796 32.06299 -7.5l0 45.0c0 4.1421204 -14.355072 7.5 -32.06299 7.5c-17.707916 0 -32.06299 -3.3578796 -32.06299 -7.5z" fill-rule="evenodd"></path><path fill="#f4f4f4" d="m447.937 395.87402l0 0c0 -4.142151 14.355072 -7.5 32.06299 -7.5c17.707916 0 32.06299 3.3578491 32.06299 7.5l0 0c0 4.1421204 -14.355072 7.5 -32.06299 7.5c-17.707916 0 -32.06299 -3.3578796 -32.06299 -7.5z" fill-rule="evenodd"></path><path fill="#000000" fill-opacity="0.0" d="m512.063 395.87402l0 0c0 4.1421204 -14.355072 7.5 -32.06299 7.5c-17.707916 0 -32.06299 -3.3578796 -32.06299 -7.5l0 0c0 -4.142151 14.355072 -7.5 32.06299 -7.5c17.707916 0 32.06299 3.3578491 32.06299 7.5l0 45.0c0 4.1421204 -14.355072 7.5 -32.06299 7.5c-17.707916 0 -32.06299 -3.3578796 -32.06299 -7.5l0 -45.0" fill-rule="evenodd"></path><path stroke="#595959" stroke-width="1.0" stroke-linejoin="round" stroke-linecap="butt" d="m512.063 395.87402l0 0c0 4.1421204 -14.355072 7.5 -32.06299 7.5c-17.707916 0 -32.06299 -3.3578796 -32.06299 -7.5l0 0c0 -4.142151 14.355072 -7.5 32.06299 -7.5c17.707916 0 32.06299 3.3578491 32.06299 7.5l0 45.0c0 4.1421204 -14.355072 7.5 -32.06299 7.5c-17.707916 0 -32.06299 -3.3578796 -32.06299 -7.5l0 -45.0" fill-rule="evenodd"></path><path fill="#eeeeee" d="m523.937 395.87402l0 0c0 4.1421204 14.355103 7.5 32.06299 7.5c17.707886 0 32.06299 -3.3578796 32.06299 -7.5l0 45.0c0 4.1421204 -14.355103 7.5 -32.06299 7.5c-17.707886 0 -32.06299 -3.3578796 -32.06299 -7.5z" fill-rule="evenodd"></path><path fill="#f4f4f4" d="m523.937 395.87402l0 0c0 -4.142151 14.355103 -7.5 32.06299 -7.5c17.707886 0 32.06299 3.3578491 32.06299 7.5l0 0c0 4.1421204 -14.355103 7.5 -32.06299 7.5c-17.707886 0 -32.06299 -3.3578796 -32.06299 -7.5z" fill-rule="evenodd"></path><path fill="#000000" fill-opacity="0.0" d="m588.063 395.87402l0 0c0 4.1421204 -14.355103 7.5 -32.06299 7.5c-17.707886 0 -32.06299 -3.3578796 -32.06299 -7.5l0 0c0 -4.142151 14.355103 -7.5 32.06299 -7.5c17.707886 0 32.06299 3.3578491 32.06299 7.5l0 45.0c0 4.1421204 -14.355103 7.5 -32.06299 7.5c-17.707886 0 -32.06299 -3.3578796 -32.06299 -7.5l0 -45.0" fill-rule="evenodd"></path><path stroke="#595959" stroke-width="1.0" stroke-linejoin="round" stroke-linecap="butt" d="m588.063 395.87402l0 0c0 4.1421204 -14.355103 7.5 -32.06299 7.5c-17.707886 0 -32.06299 -3.3578796 -32.06299 -7.5l0 0c0 -4.142151 14.355103 -7.5 32.06299 -7.5c17.707886 0 32.06299 3.3578491 32.06299 7.5l0 45.0c0 4.1421204 -14.355103 7.5 -32.06299 7.5c-17.707886 0 -32.06299 -3.3578796 -32.06299 -7.5l0 -45.0" fill-rule="evenodd"></path><path fill="#eeeeee" d="m599.937 395.87402l0 0c0 4.1421204 14.355103 7.5 32.06299 7.5c17.707886 0 32.06299 -3.3578796 32.06299 -7.5l0 45.0c0 4.1421204 -14.355103 7.5 -32.06299 7.5c-17.707886 0 -32.06299 -3.3578796 -32.06299 -7.5z" fill-rule="evenodd"></path><path fill="#f4f4f4" d="m599.937 395.87402l0 0c0 -4.142151 14.355103 -7.5 32.06299 -7.5c17.707886 0 32.06299 3.3578491 32.06299 7.5l0 0c0 4.1421204 -14.355103 7.5 -32.06299 7.5c-17.707886 0 -32.06299 -3.3578796 -32.06299 -7.5z" fill-rule="evenodd"></path><path fill="#000000" fill-opacity="0.0" d="m664.063 395.87402l0 0c0 4.1421204 -14.355103 7.5 -32.06299 7.5c-17.707886 0 -32.06299 -3.3578796 -32.06299 -7.5l0 0c0 -4.142151 14.355103 -7.5 32.06299 -7.5c17.707886 0 32.06299 3.3578491 32.06299 7.5l0 45.0c0 4.1421204 -14.355103 7.5 -32.06299 7.5c-17.707886 0 -32.06299 -3.3578796 -32.06299 -7.5l0 -45.0" fill-rule="evenodd"></path><path stroke="#595959" stroke-width="1.0" stroke-linejoin="round" stroke-linecap="butt" d="m664.063 395.87402l0 0c0 4.1421204 -14.355103 7.5 -32.06299 7.5c-17.707886 0 -32.06299 -3.3578796 -32.06299 -7.5l0 0c0 -4.142151 14.355103 -7.5 32.06299 -7.5c17.707886 0 32.06299 3.3578491 32.06299 7.5l0 45.0c0 4.1421204 -14.355103 7.5 -32.06299 7.5c-17.707886 0 -32.06299 -3.3578796 -32.06299 -7.5l0 -45.0" fill-rule="evenodd"></path><path fill="#eeeeee" d="m311.937 411.87402l0 0c0 4.1421204 14.355072 7.5 32.06299 7.5c17.707916 0 32.06299 -3.3578796 32.06299 -7.5l0 45.0c0 4.1421204 -14.355072 7.5 -32.06299 7.5c-17.707916 0 -32.06299 -3.3578796 -32.06299 -7.5z" fill-rule="evenodd"></path><path fill="#f4f4f4" d="m311.937 411.87402l0 0c0 -4.142151 14.355072 -7.5 32.06299 -7.5c17.707916 0 32.06299 3.3578491 32.06299 7.5l0 0c0 4.1421204 -14.355072 7.5 -32.06299 7.5c-17.707916 0 -32.06299 -3.3578796 -32.06299 -7.5z" fill-rule="evenodd"></path><path fill="#000000" fill-opacity="0.0" d="m376.063 411.87402l0 0c0 4.1421204 -14.355072 7.5 -32.06299 7.5c-17.707916 0 -32.06299 -3.3578796 -32.06299 -7.5l0 0c0 -4.142151 14.355072 -7.5 32.06299 -7.5c17.707916 0 32.06299 3.3578491 32.06299 7.5l0 45.0c0 4.1421204 -14.355072 7.5 -32.06299 7.5c-17.707916 0 -32.06299 -3.3578796 -32.06299 -7.5l0 -45.0" fill-rule="evenodd"></path><path stroke="#595959" stroke-width="1.0" stroke-linejoin="round" stroke-linecap="butt" d="m376.063 411.87402l0 0c0 4.1421204 -14.355072 7.5 -32.06299 7.5c-17.707916 0 -32.06299 -3.3578796 -32.06299 -7.5l0 0c0 -4.142151 14.355072 -7.5 32.06299 -7.5c17.707916 0 32.06299 3.3578491 32.06299 7.5l0 45.0c0 4.1421204 -14.355072 7.5 -32.06299 7.5c-17.707916 0 -32.06299 -3.3578796 -32.06299 -7.5l0 -45.0" fill-rule="evenodd"></path><path fill="#eeeeee" d="m387.937 411.87402l0 0c0 4.1421204 14.355072 7.5 32.06299 7.5c17.707916 0 32.06299 -3.3578796 32.06299 -7.5l0 45.0c0 4.1421204 -14.355072 7.5 -32.06299 7.5c-17.707916 0 -32.06299 -3.3578796 -32.06299 -7.5z" fill-rule="evenodd"></path><path fill="#f4f4f4" d="m387.937 411.87402l0 0c0 -4.142151 14.355072 -7.5 32.06299 -7.5c17.707916 0 32.06299 3.3578491 32.06299 7.5l0 0c0 4.1421204 -14.355072 7.5 -32.06299 7.5c-17.707916 0 -32.06299 -3.3578796 -32.06299 -7.5z" fill-rule="evenodd"></path><path fill="#000000" fill-opacity="0.0" d="m452.063 411.87402l0 0c0 4.1421204 -14.355072 7.5 -32.06299 7.5c-17.707916 0 -32.06299 -3.3578796 -32.06299 -7.5l0 0c0 -4.142151 14.355072 -7.5 32.06299 -7.5c17.707916 0 32.06299 3.3578491 32.06299 7.5l0 45.0c0 4.1421204 -14.355072 7.5 -32.06299 7.5c-17.707916 0 -32.06299 -3.3578796 -32.06299 -7.5l0 -45.0" fill-rule="evenodd"></path><path stroke="#595959" stroke-width="1.0" stroke-linejoin="round" stroke-linecap="butt" d="m452.063 411.87402l0 0c0 4.1421204 -14.355072 7.5 -32.06299 7.5c-17.707916 0 -32.06299 -3.3578796 -32.06299 -7.5l0 0c0 -4.142151 14.355072 -7.5 32.06299 -7.5c17.707916 0 32.06299 3.3578491 32.06299 7.5l0 45.0c0 4.1421204 -14.355072 7.5 -32.06299 7.5c-17.707916 0 -32.06299 -3.3578796 -32.06299 -7.5l0 -45.0" fill-rule="evenodd"></path><path fill="#eeeeee" d="m463.937 411.87402l0 0c0 4.1421204 14.355072 7.5 32.06299 7.5c17.707886 0 32.06299 -3.3578796 32.06299 -7.5l0 45.0c0 4.1421204 -14.355103 7.5 -32.06299 7.5c-17.707916 0 -32.06299 -3.3578796 -32.06299 -7.5z" fill-rule="evenodd"></path><path fill="#f4f4f4" d="m463.937 411.87402l0 0c0 -4.142151 14.355072 -7.5 32.06299 -7.5c17.707886 0 32.06299 3.3578491 32.06299 7.5l0 0c0 4.1421204 -14.355103 7.5 -32.06299 7.5c-17.707916 0 -32.06299 -3.3578796 -32.06299 -7.5z" fill-rule="evenodd"></path><path fill="#000000" fill-opacity="0.0" d="m528.063 411.87402l0 0c0 4.1421204 -14.355103 7.5 -32.06299 7.5c-17.707916 0 -32.06299 -3.3578796 -32.06299 -7.5l0 0c0 -4.142151 14.355072 -7.5 32.06299 -7.5c17.707886 0 32.06299 3.3578491 32.06299 7.5l0 45.0c0 4.1421204 -14.355103 7.5 -32.06299 7.5c-17.707916 0 -32.06299 -3.3578796 -32.06299 -7.5l0 -45.0" fill-rule="evenodd"></path><path stroke="#595959" stroke-width="1.0" stroke-linejoin="round" stroke-linecap="butt" d="m528.063 411.87402l0 0c0 4.1421204 -14.355103 7.5 -32.06299 7.5c-17.707916 0 -32.06299 -3.3578796 -32.06299 -7.5l0 0c0 -4.142151 14.355072 -7.5 32.06299 -7.5c17.707886 0 32.06299 3.3578491 32.06299 7.5l0 45.0c0 4.1421204 -14.355103 7.5 -32.06299 7.5c-17.707916 0 -32.06299 -3.3578796 -32.06299 -7.5l0 -45.0" fill-rule="evenodd"></path><path fill="#eeeeee" d="m539.937 411.87402l0 0c0 4.1421204 14.355103 7.5 32.06299 7.5c17.707886 0 32.06299 -3.3578796 32.06299 -7.5l0 45.0c0 4.1421204 -14.355103 7.5 -32.06299 7.5c-17.707886 0 -32.06299 -3.3578796 -32.06299 -7.5z" fill-rule="evenodd"></path><path fill="#f4f4f4" d="m539.937 411.87402l0 0c0 -4.142151 14.355103 -7.5 32.06299 -7.5c17.707886 0 32.06299 3.3578491 32.06299 7.5l0 0c0 4.1421204 -14.355103 7.5 -32.06299 7.5c-17.707886 0 -32.06299 -3.3578796 -32.06299 -7.5z" fill-rule="evenodd"></path><path fill="#000000" fill-opacity="0.0" d="m604.063 411.87402l0 0c0 4.1421204 -14.355103 7.5 -32.06299 7.5c-17.707886 0 -32.06299 -3.3578796 -32.06299 -7.5l0 0c0 -4.142151 14.355103 -7.5 32.06299 -7.5c17.707886 0 32.06299 3.3578491 32.06299 7.5l0 45.0c0 4.1421204 -14.355103 7.5 -32.06299 7.5c-17.707886 0 -32.06299 -3.3578796 -32.06299 -7.5l0 -45.0" fill-rule="evenodd"></path><path stroke="#595959" stroke-width="1.0" stroke-linejoin="round" stroke-linecap="butt" d="m604.063 411.87402l0 0c0 4.1421204 -14.355103 7.5 -32.06299 7.5c-17.707886 0 -32.06299 -3.3578796 -32.06299 -7.5l0 0c0 -4.142151 14.355103 -7.5 32.06299 -7.5c17.707886 0 32.06299 3.3578491 32.06299 7.5l0 45.0c0 4.1421204 -14.355103 7.5 -32.06299 7.5c-17.707886 0 -32.06299 -3.3578796 -32.06299 -7.5l0 -45.0" fill-rule="evenodd"></path><path fill="#eeeeee" d="m615.937 411.87402l0 0c0 4.1421204 14.355103 7.5 32.06299 7.5c17.707886 0 32.06299 -3.3578796 32.06299 -7.5l0 45.0c0 4.1421204 -14.355103 7.5 -32.06299 7.5c-17.707886 0 -32.06299 -3.3578796 -32.06299 -7.5z" fill-rule="evenodd"></path><path fill="#f4f4f4" d="m615.937 411.87402l0 0c0 -4.142151 14.355103 -7.5 32.06299 -7.5c17.707886 0 32.06299 3.3578491 32.06299 7.5l0 0c0 4.1421204 -14.355103 7.5 -32.06299 7.5c-17.707886 0 -32.06299 -3.3578796 -32.06299 -7.5z" fill-rule="evenodd"></path><path fill="#000000" fill-opacity="0.0" d="m680.063 411.87402l0 0c0 4.1421204 -14.355103 7.5 -32.06299 7.5c-17.707886 0 -32.06299 -3.3578796 -32.06299 -7.5l0 0c0 -4.142151 14.355103 -7.5 32.06299 -7.5c17.707886 0 32.06299 3.3578491 32.06299 7.5l0 45.0c0 4.1421204 -14.355103 7.5 -32.06299 7.5c-17.707886 0 -32.06299 -3.3578796 -32.06299 -7.5l0 -45.0" fill-rule="evenodd"></path><path stroke="#595959" stroke-width="1.0" stroke-linejoin="round" stroke-linecap="butt" d="m680.063 411.87402l0 0c0 4.1421204 -14.355103 7.5 -32.06299 7.5c-17.707886 0 -32.06299 -3.3578796 -32.06299 -7.5l0 0c0 -4.142151 14.355103 -7.5 32.06299 -7.5c17.707886 0 32.06299 3.3578491 32.06299 7.5l0 45.0c0 4.1421204 -14.355103 7.5 -32.06299 7.5c-17.707886 0 -32.06299 -3.3578796 -32.06299 -7.5l0 -45.0" fill-rule="evenodd"></path><path fill="#eeeeee" d="m327.937 427.87402l0 0c0 4.1421204 14.355072 7.5 32.06299 7.5c17.707916 0 32.06299 -3.3578796 32.06299 -7.5l0 45.0c0 4.1421204 -14.355072 7.5 -32.06299 7.5c-17.707916 0 -32.06299 -3.3578796 -32.06299 -7.5z" fill-rule="evenodd"></path><path fill="#f4f4f4" d="m327.937 427.87402l0 0c0 -4.142151 14.355072 -7.5 32.06299 -7.5c17.707916 0 32.06299 3.3578491 32.06299 7.5l0 0c0 4.1421204 -14.355072 7.5 -32.06299 7.5c-17.707916 0 -32.06299 -3.3578796 -32.06299 -7.5z" fill-rule="evenodd"></path><path fill="#000000" fill-opacity="0.0" d="m392.063 427.87402l0 0c0 4.1421204 -14.355072 7.5 -32.06299 7.5c-17.707916 0 -32.06299 -3.3578796 -32.06299 -7.5l0 0c0 -4.142151 14.355072 -7.5 32.06299 -7.5c17.707916 0 32.06299 3.3578491 32.06299 7.5l0 45.0c0 4.1421204 -14.355072 7.5 -32.06299 7.5c-17.707916 0 -32.06299 -3.3578796 -32.06299 -7.5l0 -45.0" fill-rule="evenodd"></path><path stroke="#595959" stroke-width="1.0" stroke-linejoin="round" stroke-linecap="butt" d="m392.063 427.87402l0 0c0 4.1421204 -14.355072 7.5 -32.06299 7.5c-17.707916 0 -32.06299 -3.3578796 -32.06299 -7.5l0 0c0 -4.142151 14.355072 -7.5 32.06299 -7.5c17.707916 0 32.06299 3.3578491 32.06299 7.5l0 45.0c0 4.1421204 -14.355072 7.5 -32.06299 7.5c-17.707916 0 -32.06299 -3.3578796 -32.06299 -7.5l0 -45.0" fill-rule="evenodd"></path><path fill="#eeeeee" d="m403.937 427.87402l0 0c0 4.1421204 14.355072 7.5 32.06299 7.5c17.707916 0 32.06299 -3.3578796 32.06299 -7.5l0 45.0c0 4.1421204 -14.355072 7.5 -32.06299 7.5c-17.707916 0 -32.06299 -3.3578796 -32.06299 -7.5z" fill-rule="evenodd"></path><path fill="#f4f4f4" d="m403.937 427.87402l0 0c0 -4.142151 14.355072 -7.5 32.06299 -7.5c17.707916 0 32.06299 3.3578491 32.06299 7.5l0 0c0 4.1421204 -14.355072 7.5 -32.06299 7.5c-17.707916 0 -32.06299 -3.3578796 -32.06299 -7.5z" fill-rule="evenodd"></path><path fill="#000000" fill-opacity="0.0" d="m468.063 427.87402l0 0c0 4.1421204 -14.355072 7.5 -32.06299 7.5c-17.707916 0 -32.06299 -3.3578796 -32.06299 -7.5l0 0c0 -4.142151 14.355072 -7.5 32.06299 -7.5c17.707916 0 32.06299 3.3578491 32.06299 7.5l0 45.0c0 4.1421204 -14.355072 7.5 -32.06299 7.5c-17.707916 0 -32.06299 -3.3578796 -32.06299 -7.5l0 -45.0" fill-rule="evenodd"></path><path stroke="#595959" stroke-width="1.0" stroke-linejoin="round" stroke-linecap="butt" d="m468.063 427.87402l0 0c0 4.1421204 -14.355072 7.5 -32.06299 7.5c-17.707916 0 -32.06299 -3.3578796 -32.06299 -7.5l0 0c0 -4.142151 14.355072 -7.5 32.06299 -7.5c17.707916 0 32.06299 3.3578491 32.06299 7.5l0 45.0c0 4.1421204 -14.355072 7.5 -32.06299 7.5c-17.707916 0 -32.06299 -3.3578796 -32.06299 -7.5l0 -45.0" fill-rule="evenodd"></path><path fill="#eeeeee" d="m479.937 427.87402l0 0c0 4.1421204 14.355072 7.5 32.06299 7.5c17.707886 0 32.06299 -3.3578796 32.06299 -7.5l0 45.0c0 4.1421204 -14.355103 7.5 -32.06299 7.5c-17.707916 0 -32.06299 -3.3578796 -32.06299 -7.5z" fill-rule="evenodd"></path><path fill="#f4f4f4" d="m479.937 427.87402l0 0c0 -4.142151 14.355072 -7.5 32.06299 -7.5c17.707886 0 32.06299 3.3578491 32.06299 7.5l0 0c0 4.1421204 -14.355103 7.5 -32.06299 7.5c-17.707916 0 -32.06299 -3.3578796 -32.06299 -7.5z" fill-rule="evenodd"></path><path fill="#000000" fill-opacity="0.0" d="m544.063 427.87402l0 0c0 4.1421204 -14.355103 7.5 -32.06299 7.5c-17.707916 0 -32.06299 -3.3578796 -32.06299 -7.5l0 0c0 -4.142151 14.355072 -7.5 32.06299 -7.5c17.707886 0 32.06299 3.3578491 32.06299 7.5l0 45.0c0 4.1421204 -14.355103 7.5 -32.06299 7.5c-17.707916 0 -32.06299 -3.3578796 -32.06299 -7.5l0 -45.0" fill-rule="evenodd"></path><path stroke="#595959" stroke-width="1.0" stroke-linejoin="round" stroke-linecap="butt" d="m544.063 427.87402l0 0c0 4.1421204 -14.355103 7.5 -32.06299 7.5c-17.707916 0 -32.06299 -3.3578796 -32.06299 -7.5l0 0c0 -4.142151 14.355072 -7.5 32.06299 -7.5c17.707886 0 32.06299 3.3578491 32.06299 7.5l0 45.0c0 4.1421204 -14.355103 7.5 -32.06299 7.5c-17.707916 0 -32.06299 -3.3578796 -32.06299 -7.5l0 -45.0" fill-rule="evenodd"></path><path fill="#eeeeee" d="m555.937 427.87402l0 0c0 4.1421204 14.355103 7.5 32.06299 7.5c17.707886 0 32.06299 -3.3578796 32.06299 -7.5l0 45.0c0 4.1421204 -14.355103 7.5 -32.06299 7.5c-17.707886 0 -32.06299 -3.3578796 -32.06299 -7.5z" fill-rule="evenodd"></path><path fill="#f4f4f4" d="m555.937 427.87402l0 0c0 -4.142151 14.355103 -7.5 32.06299 -7.5c17.707886 0 32.06299 3.3578491 32.06299 7.5l0 0c0 4.1421204 -14.355103 7.5 -32.06299 7.5c-17.707886 0 -32.06299 -3.3578796 -32.06299 -7.5z" fill-rule="evenodd"></path><path fill="#000000" fill-opacity="0.0" d="m620.063 427.87402l0 0c0 4.1421204 -14.355103 7.5 -32.06299 7.5c-17.707886 0 -32.06299 -3.3578796 -32.06299 -7.5l0 0c0 -4.142151 14.355103 -7.5 32.06299 -7.5c17.707886 0 32.06299 3.3578491 32.06299 7.5l0 45.0c0 4.1421204 -14.355103 7.5 -32.06299 7.5c-17.707886 0 -32.06299 -3.3578796 -32.06299 -7.5l0 -45.0" fill-rule="evenodd"></path><path stroke="#595959" stroke-width="1.0" stroke-linejoin="round" stroke-linecap="butt" d="m620.063 427.87402l0 0c0 4.1421204 -14.355103 7.5 -32.06299 7.5c-17.707886 0 -32.06299 -3.3578796 -32.06299 -7.5l0 0c0 -4.142151 14.355103 -7.5 32.06299 -7.5c17.707886 0 32.06299 3.3578491 32.06299 7.5l0 45.0c0 4.1421204 -14.355103 7.5 -32.06299 7.5c-17.707886 0 -32.06299 -3.3578796 -32.06299 -7.5l0 -45.0" fill-rule="evenodd"></path><path fill="#eeeeee" d="m631.937 427.87402l0 0c0 4.1421204 14.355103 7.5 32.06299 7.5c17.707886 0 32.06299 -3.3578796 32.06299 -7.5l0 45.0c0 4.1421204 -14.355103 7.5 -32.06299 7.5c-17.707886 0 -32.06299 -3.3578796 -32.06299 -7.5z" fill-rule="evenodd"></path><path fill="#f4f4f4" d="m631.937 427.87402l0 0c0 -4.142151 14.355103 -7.5 32.06299 -7.5c17.707886 0 32.06299 3.3578491 32.06299 7.5l0 0c0 4.1421204 -14.355103 7.5 -32.06299 7.5c-17.707886 0 -32.06299 -3.3578796 -32.06299 -7.5z" fill-rule="evenodd"></path><path fill="#000000" fill-opacity="0.0" d="m696.063 427.87402l0 0c0 4.1421204 -14.355103 7.5 -32.06299 7.5c-17.707886 0 -32.06299 -3.3578796 -32.06299 -7.5l0 0c0 -4.142151 14.355103 -7.5 32.06299 -7.5c17.707886 0 32.06299 3.3578491 32.06299 7.5l0 45.0c0 4.1421204 -14.355103 7.5 -32.06299 7.5c-17.707886 0 -32.06299 -3.3578796 -32.06299 -7.5l0 -45.0" fill-rule="evenodd"></path><path stroke="#595959" stroke-width="1.0" stroke-linejoin="round" stroke-linecap="butt" d="m696.063 427.87402l0 0c0 4.1421204 -14.355103 7.5 -32.06299 7.5c-17.707886 0 -32.06299 -3.3578796 -32.06299 -7.5l0 0c0 -4.142151 14.355103 -7.5 32.06299 -7.5c17.707886 0 32.06299 3.3578491 32.06299 7.5l0 45.0c0 4.1421204 -14.355103 7.5 -32.06299 7.5c-17.707886 0 -32.06299 -3.3578796 -32.06299 -7.5l0 -45.0" fill-rule="evenodd"></path><path fill="#000000" fill-opacity="0.0" d="m274.6614 494.9908l410.67715 0l0 63.118134l-410.67715 0z" fill-rule="evenodd"></path><path fill="#000000" d="m366.7885 513.5233l0 14.171875q0 3.078125 -1.546875 5.03125q-1.78125 2.234375 -5.375 2.234375q-3.234375 0 -5.140625 -1.84375q-1.703125 -1.703125 -1.921875 -4.0625l2.484375 0q0.234375 1.40625 1.3125 2.390625q1.28125 1.1875 3.40625 1.1875q2.546875 0 3.640625 -1.703125q0.734375 -1.171875 0.734375 -3.328125l0 -14.078125l2.40625 0zm16.020264 21.1875l0 -2.5q-0.859375 1.15625 -2.109375 1.953125q-1.25 0.796875 -2.84375 0.796875q-1.59375 0 -2.75 -0.4375q-1.15625 -0.453125 -2.015625 -1.34375q-1.984375 -1.953125 -1.984375 -5.15625l0 -9.3125l2.390625 0l0 9.25q0 2.203125 1.25 3.515625q1.25 1.3125 3.234375 1.3125q2.015625 0 3.421875 -1.34375q1.40625 -1.375 1.40625 -3.515625l0 -9.21875l2.40625 0l0 16.0l-2.40625 0zm8.971405 -13.4375q1.921875 -2.8125 5.71875 -2.8125q3.453125 0 5.609375 2.390625q2.140625 2.375 2.140625 5.859375q0 3.484375 -2.140625 5.859375q-2.15625 2.390625 -5.765625 2.390625q-3.609375 0 -5.5625 -2.84375l0 8.9375l-2.40625 0l0 -22.34375l2.40625 0l0 2.5625zm5.40625 -0.640625q-2.59375 0 -4.09375 1.796875q-1.4375 1.6875 -1.4375 4.28125q0 2.59375 1.4375 4.28125q1.5 1.796875 4.09375 1.796875q2.5625 0 4.15625 -1.796875q1.5 -1.6875 1.5 -4.28125q0 -2.59375 -1.5 -4.28125q-1.59375 -1.796875 -4.15625 -1.796875zm15.461151 20.421875l-2.59375 0l2.90625 -6.5625l-6.53125 -15.78125l2.65625 0l5.15625 13.125l5.25 -13.125l2.625 0l-9.46875 22.34375zm13.372803 -6.34375l0 -13.890625l-3.265625 0l0 -2.109375l3.265625 0l0 -5.734375l2.390625 0l0 5.734375l3.6875 0l0 2.109375l-3.6875 0l0 13.890625l-2.390625 0zm15.838257 -1.921875q3.234375 0 4.640625 -2.6875l2.625 0q-0.84375 2.171875 -2.65625 3.515625q-1.796875 1.34375 -4.640625 1.34375q-3.625 0 -5.890625 -2.390625q-2.203125 -2.34375 -2.203125 -5.859375q0 -3.546875 2.109375 -5.859375q2.234375 -2.390625 5.828125 -2.390625q3.578125 0 5.8125 2.390625q2.109375 2.3125 2.109375 5.859375l0 0.953125l-13.40625 0q0.265625 2.21875 1.765625 3.65625q1.53125 1.46875 3.90625 1.46875zm-0.1875 -12.15625q-2.21875 0 -3.71875 1.375q-1.40625 1.3125 -1.734375 3.421875l10.890625 0q-0.328125 -2.109375 -1.734375 -3.421875q-1.5 -1.375 -3.703125 -1.375zm19.324036 -2.171875l0 2.390625l-0.296875 0q-2.59375 0 -4.21875 2.078125q-1.53125 1.984375 -1.53125 4.734375l0 7.046875l-2.40625 0l0 -16.0l2.40625 0l0 3.9375q0.765625 -2.5 3.328125 -3.6875q1.046875 -0.5 2.5625 -0.5l0.15625 0zm12.309174 16.25l-2.390625 0l0 -21.1875l2.390625 0l0 21.1875zm7.084015 -16.0l0 2.5q0.859375 -1.15625 2.109375 -1.953125q1.25 -0.796875 2.84375 -0.796875q1.609375 0 2.75 0.453125q1.15625 0.4375 2.015625 1.328125q1.984375 1.953125 1.984375 5.15625l0 9.3125l-2.390625 0l0 -9.25q0 -2.203125 -1.25 -3.515625q-1.25 -1.3125 -3.234375 -1.3125q-2.015625 0 -3.421875 1.34375q-1.40625 1.375 -1.40625 3.515625l0 9.21875l-2.40625 0l0 -16.0l2.40625 0zm25.11203 4.28125q-0.3125 -2.484375 -4.015625 -2.484375q-3.6875 0 -3.6875 2.296875q0 0.96875 0.78125 1.46875q0.78125 0.484375 1.96875 0.8125q1.1875 0.3125 2.578125 0.59375q1.390625 0.265625 2.5625 0.765625q1.1875 0.484375 1.96875 1.359375q0.796875 0.859375 0.796875 2.359375q0 2.34375 -1.765625 3.578125q-1.765625 1.21875 -4.765625 1.21875q-3.203125 0 -5.09375 -1.59375q-1.71875 -1.40625 -1.859375 -3.6875l2.5 0q0.234375 2.21875 2.5 2.984375q0.828125 0.25 1.640625 0.25q0.828125 0 1.53125 -0.09375q0.703125 -0.09375 1.375 -0.34375q1.53125 -0.609375 1.53125 -2.078125q0 -1.0 -0.78125 -1.53125q-0.78125 -0.53125 -1.96875 -0.859375q-1.1875 -0.34375 -2.578125 -0.609375q-1.390625 -0.265625 -2.578125 -0.75q-1.1875 -0.484375 -1.96875 -1.3125q-0.78125 -0.828125 -0.78125 -2.3125q0 -2.171875 1.578125 -3.359375q1.59375 -1.203125 4.6875 -1.203125q2.953125 0 4.640625 1.40625q1.421875 1.1875 1.640625 3.125l-2.4375 0zm7.7521667 11.71875l0 -13.890625l-3.2656555 0l0 -2.109375l3.2656555 0l0 -5.734375l2.390625 0l0 5.734375l3.6875 0l0 2.109375l-3.6875 0l0 13.890625l-2.390625 0zm21.182007 -2.5625q-1.921875 2.8125 -5.734375 2.8125q-3.453125 0 -5.625 -2.390625q-2.109375 -2.375 -2.109375 -5.859375q0 -3.484375 2.109375 -5.859375q2.171875 -2.390625 5.78125 -2.390625q3.625 0 5.578125 2.84375l0 -2.59375l2.390625 0l0 16.0l-2.390625 0l0 -2.5625zm-5.40625 0.640625q2.59375 0 4.09375 -1.796875q1.4375 -1.6875 1.4375 -4.28125q0 -2.59375 -1.4375 -4.28125q-1.5 -1.796875 -4.09375 -1.796875q-2.5625 0 -4.171875 1.796875q-1.5 1.6875 -1.5 4.28125q0 2.59375 1.5 4.28125q1.609375 1.796875 4.171875 1.796875zm14.368164 -14.078125l0 2.5q0.859375 -1.15625 2.109375 -1.953125q1.25 -0.796875 2.84375 -0.796875q1.609375 0 2.75 0.453125q1.15625 0.4375 2.015625 1.328125q1.984375 1.953125 1.984375 5.15625l0 9.3125l-2.390625 0l0 -9.25q0 -2.203125 -1.25 -3.515625q-1.25 -1.3125 -3.234375 -1.3125q-2.015625 0 -3.421875 1.34375q-1.40625 1.375 -1.40625 3.515625l0 9.21875l-2.40625 0l0 -16.0l2.40625 0zm23.096436 14.078125q1.546875 0 2.71875 -0.859375q1.1875 -0.859375 1.734375 -2.25l2.59375 0q-0.734375 2.375 -2.6875 3.8125q-2.046875 1.46875 -4.875 1.46875q-3.515625 0 -5.71875 -2.390625q-2.140625 -2.34375 -2.140625 -5.859375q0 -3.515625 2.140625 -5.859375q2.203125 -2.390625 5.71875 -2.390625q2.828125 0 4.875 1.46875q1.953125 1.4375 2.6875 3.8125l-2.59375 0q-0.546875 -1.390625 -1.734375 -2.25q-1.171875 -0.859375 -2.71875 -0.859375q-1.53125 0 -2.609375 0.484375q-1.0625 0.46875 -1.796875 1.3125q-1.578125 1.71875 -1.578125 4.28125q0 2.5625 1.578125 4.28125q1.59375 1.796875 4.40625 1.796875zm17.15802 0q3.234375 0 4.640625 -2.6875l2.625 0q-0.84375 2.171875 -2.65625 3.515625q-1.796875 1.34375 -4.640625 1.34375q-3.625 0 -5.890625 -2.390625q-2.203125 -2.34375 -2.203125 -5.859375q0 -3.546875 2.109375 -5.859375q2.234375 -2.390625 5.828125 -2.390625q3.578125 0 5.8125 2.390625q2.109375 2.3125 2.109375 5.859375l0 0.953125l-13.40625 0q0.265625 2.21875 1.765625 3.65625q1.53125 1.46875 3.90625 1.46875zm-0.1875 -12.15625q-2.21875 0 -3.71875 1.375q-1.40625 1.3125 -1.734375 3.421875l10.890625 0q-0.328125 -2.109375 -1.734375 -3.421875q-1.5 -1.375 -3.703125 -1.375zm20.27716 2.359375q-0.3125 -2.484375 -4.015625 -2.484375q-3.6875 0 -3.6875 2.296875q0 0.96875 0.78125 1.46875q0.78125 0.484375 1.96875 0.8125q1.1875 0.3125 2.578125 0.59375q1.390625 0.265625 2.5625 0.765625q1.1875 0.484375 1.96875 1.359375q0.796875 0.859375 0.796875 2.359375q0 2.34375 -1.765625 3.578125q-1.765625 1.21875 -4.765625 1.21875q-3.203125 0 -5.09375 -1.59375q-1.71875 -1.40625 -1.859375 -3.6875l2.5 0q0.234375 2.21875 2.5 2.984375q0.828125 0.25 1.640625 0.25q0.828125 0 1.53125 -0.09375q0.703125 -0.09375 1.375 -0.34375q1.53125 -0.609375 1.53125 -2.078125q0 -1.0 -0.78125 -1.53125q-0.78125 -0.53125 -1.96875 -0.859375q-1.1875 -0.34375 -2.578125 -0.609375q-1.390625 -0.265625 -2.578125 -0.75q-1.1875 -0.484375 -1.96875 -1.3125q-0.78125 -0.828125 -0.78125 -2.3125q0 -2.171875 1.578125 -3.359375q1.59375 -1.203125 4.6875 -1.203125q2.953125 0 4.640625 1.40625q1.421875 1.1875 1.640625 3.125l-2.4375 0z" fill-rule="nonzero"></path><path fill="#eeeeee" d="m441.73227 308.542l19.13388 0l0 -70.3622l38.2677 0l0 70.3622l19.13385 0l-38.2677 38.26773z" fill-rule="evenodd"></path><path stroke="#595959" stroke-width="1.0" stroke-linejoin="round" stroke-linecap="butt" d="m441.73227 308.542l19.13388 0l0 -70.3622l38.2677 0l0 70.3622l19.13385 0l-38.2677 38.26773z" fill-rule="evenodd"></path></g></svg>

