<?xml version="1.0" standalone="yes"?>

<svg version="1.1" viewBox="0.0 0.0 384.0 720.0" fill="none" stroke="none" stroke-linecap="square" stroke-miterlimit="10" xmlns="http://www.w3.org/2000/svg" xmlns:xlink="http://www.w3.org/1999/xlink"><clipPath id="p.0"><path d="m0 0l384.0 0l0 720.0l-384.0 0l0 -720.0z" clip-rule="nonzero"></path></clipPath><g clip-path="url(#p.0)"><path fill="#000000" fill-opacity="0.0" d="m0 0l384.0 0l0 720.0l-384.0 0z" fill-rule="evenodd"></path><path fill="#000000" fill-opacity="0.0" d="m191.99966 179.44357l0 25.51181" fill-rule="evenodd"></path><path stroke="#595959" stroke-width="4.0" stroke-linejoin="round" stroke-linecap="butt" d="m191.99966 179.44357l0 1.5118103" fill-rule="evenodd"></path><path fill="#595959" stroke="#595959" stroke-width="4.0" stroke-linecap="butt" d="m185.39275 180.95538l6.6069183 18.15239l6.6069336 -18.15239z" fill-rule="evenodd"></path><path fill="#eeeeee" d="m110.70218 204.9692l162.59354 0l-32.518707 118.249344l-97.55612 0z" fill-rule="evenodd"></path><path stroke="#595959" stroke-width="1.0" stroke-linejoin="round" stroke-linecap="butt" d="m110.70218 204.9692l162.59354 0l-32.518707 118.249344l-97.55612 0z" fill-rule="evenodd"></path><path fill="#000000" d="m161.44725 256.93887l0 7.359375l11.5 0l0 2.328125l-11.5 0l0 9.1875l-2.390625 0l0 -21.1875l15.296875 0l0 2.3125l-12.90625 0zm15.749786 2.875l2.40625 0l0 16.0l-2.40625 0l0 -16.0zm2.5 -5.828125l0 3.140625l-2.59375 0l0 -3.140625l2.59375 0zm6.466263 21.828125l-2.40625 0l0 -22.40625l2.40625 0l0 22.40625zm5.888138 0l0 -13.890625l-3.265625 0l0 -2.109375l3.265625 0l0 -5.734375l2.390625 0l0 5.734375l3.6875 0l0 2.109375l-3.6875 0l0 13.890625l-2.390625 0zm15.838272 -1.921875q3.234375 0 4.640625 -2.6875l2.625 0q-0.84375 2.171875 -2.65625 3.515625q-1.796875 1.34375 -4.640625 1.34375q-3.625 0 -5.890625 -2.390625q-2.203125 -2.34375 -2.203125 -5.859375q0 -3.546875 2.109375 -5.859375q2.234375 -2.390625 5.828125 -2.390625q3.578125 0 5.8125 2.390625q2.109375 2.3125 2.109375 5.859375l0 0.953125l-13.40625 0q0.265625 2.21875 1.765625 3.65625q1.53125 1.46875 3.90625 1.46875zm-0.1875 -12.15625q-2.21875 0 -3.71875 1.375q-1.40625 1.3125 -1.734375 3.421875l10.890625 0q-0.328125 -2.109375 -1.734375 -3.421875q-1.5 -1.375 -3.703125 -1.375zm19.324036 -2.171875l0 2.390625l-0.296875 0q-2.59375 0 -4.21875 2.078125q-1.53125 1.984375 -1.53125 4.734375l0 7.046875l-2.40625 0l0 -16.0l2.40625 0l0 3.9375q0.765625 -2.5 3.328125 -3.6875q1.046875 -0.5 2.5625 -0.5l0.15625 0z" fill-rule="nonzero"></path><path fill="#eeeeee" d="m71.79494 67.08182l0 0c0 -12.411438 10.061462 -22.472893 22.472893 -22.472893l195.46368 0c5.9601746 0 11.676239 2.367672 15.890717 6.582157c4.214508 4.214485 6.5821533 9.93055 6.5821533 15.890736l0 89.888855c0 12.411438 -10.061432 22.4729 -22.47287 22.4729l-195.46368 0c-12.41143 0 -22.472893 -10.061462 -22.472893 -22.4729z" fill-rule="evenodd"></path><path stroke="#595959" stroke-width="1.0" stroke-linejoin="round" stroke-linecap="butt" d="m71.79494 67.08182l0 0c0 -12.411438 10.061462 -22.472893 22.472893 -22.472893l195.46368 0c5.9601746 0 11.676239 2.367672 15.890717 6.582157c4.214508 4.214485 6.5821533 9.93055 6.5821533 15.890736l0 89.888855c0 12.411438 -10.061432 22.4729 -22.47287 22.4729l-195.46368 0c-12.41143 0 -22.472893 -10.061462 -22.472893 -22.4729z" fill-rule="evenodd"></path><path fill="#000000" d="m167.99522 102.55875q1.890625 0 3.640625 0.71875q1.765625 0.71875 3.109375 2.09375q2.984375 3.046875 2.984375 7.78125q0 4.734375 -2.984375 7.78125q-1.34375 1.375 -3.109375 2.09375q-1.75 0.71875 -3.640625 0.71875l-8.921875 0l0 -21.1875l8.921875 0zm-0.09375 18.921875q3.328125 0 5.40625 -2.46875q2.015625 -2.375 2.015625 -5.859375q0 -3.484375 -2.015625 -5.859375q-2.078125 -2.453125 -5.40625 -2.453125l-6.4375 0l0 16.640625l6.4375 0zm25.66867 -0.296875q-1.921875 2.8125 -5.734375 2.8125q-3.453125 0 -5.625 -2.390625q-2.109375 -2.375 -2.109375 -5.859375q0 -3.484375 2.109375 -5.859375q2.171875 -2.390625 5.78125 -2.390625q3.625 0 5.578125 2.84375l0 -2.59375l2.390625 0l0 16.0l-2.390625 0l0 -2.5625zm-5.40625 0.640625q2.59375 0 4.09375 -1.796875q1.4375 -1.6875 1.4375 -4.28125q0 -2.59375 -1.4375 -4.28125q-1.5 -1.796875 -4.09375 -1.796875q-2.5625 0 -4.171875 1.796875q-1.5 1.6875 -1.5 4.28125q0 2.59375 1.5 4.28125q1.609375 1.796875 4.171875 1.796875zm13.696289 1.921875l0 -13.890625l-3.265625 0l0 -2.109375l3.265625 0l0 -5.734375l2.390625 0l0 5.734375l3.6875 0l0 2.109375l-3.6875 0l0 13.890625l-2.390625 0zm21.182022 -2.5625q-1.921875 2.8125 -5.734375 2.8125q-3.453125 0 -5.625 -2.390625q-2.109375 -2.375 -2.109375 -5.859375q0 -3.484375 2.109375 -5.859375q2.171875 -2.390625 5.78125 -2.390625q3.625 0 5.578125 2.84375l0 -2.59375l2.390625 0l0 16.0l-2.390625 0l0 -2.5625zm-5.40625 0.640625q2.59375 0 4.09375 -1.796875q1.4375 -1.6875 1.4375 -4.28125q0 -2.59375 -1.4375 -4.28125q-1.5 -1.796875 -4.09375 -1.796875q-2.5625 0 -4.171875 1.796875q-1.5 1.6875 -1.5 4.28125q0 2.59375 1.5 4.28125q1.609375 1.796875 4.171875 1.796875z" fill-rule="nonzero"></path><path fill="#000000" fill-opacity="0.0" d="m191.99895 323.21854l0 64.09451" fill-rule="evenodd"></path><path stroke="#595959" stroke-width="4.0" stroke-linejoin="round" stroke-linecap="butt" d="m191.99895 323.21854l0 40.094482" fill-rule="evenodd"></path><path fill="#595959" stroke="#595959" stroke-width="4.0" stroke-linecap="butt" d="m185.39203 363.31305l6.6069183 18.152374l6.6069336 -18.152374z" fill-rule="evenodd"></path><path fill="#eeeeee" d="m110.70349 505.55783l32.518707 -118.24936l130.07483 0l-32.518707 118.24936z" fill-rule="evenodd"></path><path stroke="#595959" stroke-width="1.0" stroke-linejoin="round" stroke-linecap="butt" d="m110.70349 505.55783l32.518707 -118.24936l130.07483 0l-32.518707 118.24936z" fill-rule="evenodd"></path><path fill="#000000" fill-opacity="0.0" d="m100.259735 416.55896l183.48105 0l0 59.748383l-183.48105 0z" fill-rule="evenodd"></path><path fill="#000000" d="m164.38728 435.09146l0 21.1875l-2.40625 0l0 -17.53125l-7.84375 10.078125l-7.96875 -10.078125l0 17.53125l-2.390625 0l0 -21.1875l2.78125 0l7.578125 10.046875l7.46875 -10.046875l2.78125 0zm16.213928 21.1875l0 -2.5q-0.859375 1.15625 -2.109375 1.953125q-1.25 0.796875 -2.84375 0.796875q-1.59375 0 -2.75 -0.4375q-1.15625 -0.453125 -2.015625 -1.34375q-1.984375 -1.953125 -1.984375 -5.15625l0 -9.3125l2.390625 0l0 9.25q0 2.203125 1.25 3.515625q1.25 1.3125 3.234375 1.3125q2.015625 0 3.421875 -1.34375q1.40625 -1.375 1.40625 -3.515625l0 -9.21875l2.40625 0l0 16.0l-2.40625 0zm8.29953 0l0 -13.890625l-3.265625 0l0 -2.109375l3.265625 0l0 -5.734375l2.390625 0l0 5.734375l3.6875 0l0 2.109375l-3.6875 0l0 13.890625l-2.390625 0zm21.182022 -2.5625q-1.921875 2.8125 -5.734375 2.8125q-3.453125 0 -5.625 -2.390625q-2.109375 -2.375 -2.109375 -5.859375q0 -3.484375 2.109375 -5.859375q2.171875 -2.390625 5.78125 -2.390625q3.625 0 5.578125 2.84375l0 -2.59375l2.390625 0l0 16.0l-2.390625 0l0 -2.5625zm-5.40625 0.640625q2.59375 0 4.09375 -1.796875q1.4375 -1.6875 1.4375 -4.28125q0 -2.59375 -1.4375 -4.28125q-1.5 -1.796875 -4.09375 -1.796875q-2.5625 0 -4.171875 1.796875q-1.5 1.6875 -1.5 4.28125q0 2.59375 1.5 4.28125q1.609375 1.796875 4.171875 1.796875zm13.696289 1.921875l0 -13.890625l-3.265625 0l0 -2.109375l3.265625 0l0 -5.734375l2.390625 0l0 5.734375l3.6875 0l0 2.109375l-3.6875 0l0 13.890625l-2.390625 0zm15.838272 -1.921875q3.234375 0 4.640625 -2.6875l2.625 0q-0.84375 2.171875 -2.65625 3.515625q-1.796875 1.34375 -4.640625 1.34375q-3.625 0 -5.890625 -2.390625q-2.203125 -2.34375 -2.203125 -5.859375q0 -3.546875 2.109375 -5.859375q2.234375 -2.390625 5.828125 -2.390625q3.578125 0 5.8125 2.390625q2.109375 2.3125 2.109375 5.859375l0 0.953125l-13.40625 0q0.265625 2.21875 1.765625 3.65625q1.53125 1.46875 3.90625 1.46875zm-0.1875 -12.15625q-2.21875 0 -3.71875 1.375q-1.40625 1.3125 -1.734375 3.421875l10.890625 0q-0.328125 -2.109375 -1.734375 -3.421875q-1.5 -1.375 -3.703125 -1.375z" fill-rule="nonzero"></path><path fill="#000000" fill-opacity="0.0" d="m283.74078 446.43317l53.463562 0l0 -334.3937l-24.99112 0" fill-rule="evenodd"></path><path stroke="#595959" stroke-width="4.0" stroke-linejoin="round" stroke-linecap="butt" stroke-dasharray="16.0,12.0" d="m283.74078 446.43317l53.463562 0l0 -334.3937l-0.9911194 0" fill-rule="evenodd"></path><path fill="#595959" stroke="#595959" stroke-width="4.0" stroke-linecap="butt" d="m336.21323 105.43253l-18.152405 6.606926l18.152405 6.6069336z" fill-rule="evenodd"></path><path fill="#000000" fill-opacity="0.0" d="m126.96153 264.09387l-80.16655 0l0 -152.06299l24.985455 0" fill-rule="evenodd"></path><path stroke="#595959" stroke-width="4.0" stroke-linejoin="round" stroke-linecap="butt" stroke-dasharray="16.0,12.0" d="m126.96153 264.09387l-80.16655 0l0 -152.06299l0.98545074 0" fill-rule="evenodd"></path><path fill="#595959" stroke="#595959" stroke-width="4.0" stroke-linecap="butt" d="m47.78043 118.63781l18.152393 -6.606926l-18.152393 -6.6069336z" fill-rule="evenodd"></path><path fill="#eeeeee" d="m94.66139 700.39105l97.33858 -130.74011l97.33859 130.74011z" fill-rule="evenodd"></path><path stroke="#595959" stroke-width="1.0" stroke-linejoin="round" stroke-linecap="butt" d="m94.66139 700.39105l97.33858 -130.74011l97.33859 130.74011z" fill-rule="evenodd"></path><path fill="#000000" d="m165.89554 661.4885q-0.59375 0.53125 -0.8125 1.171875q-0.203125 0.640625 -0.203125 1.359375q0 0.71875 0.625 1.328125q0.625 0.609375 1.640625 1.03125q1.03125 0.40625 2.34375 0.734375q1.3125 0.3125 2.671875 0.65625q1.359375 0.328125 2.671875 0.765625q1.3125 0.421875 2.328125 1.09375q2.28125 1.4375 2.28125 3.9375q0 2.984375 -2.234375 4.546875q-2.21875 1.5625 -6.15625 1.5625q-4.4375 0 -6.78125 -1.84375q-2.078125 -1.671875 -2.359375 -4.75l2.484375 0q0.125 2.1875 2.109375 3.328125q1.734375 1.0 4.578125 1.0q5.953125 0 5.953125 -3.75q0 -1.28125 -1.078125 -2.015625q-1.0625 -0.734375 -2.6875 -1.203125q-1.609375 -0.484375 -3.484375 -0.890625q-1.859375 -0.421875 -3.484375 -1.078125q-1.609375 -0.65625 -2.6875 -1.734375q-1.078125 -1.078125 -1.078125 -2.890625q0 -2.59375 1.984375 -4.21875q1.984375 -1.640625 5.984375 -1.640625q4.03125 0 6.25 1.859375q2.015625 1.625 2.140625 4.1875l-2.46875 0q-0.3125 -2.625 -3.390625 -3.484375q-1.078125 -0.328125 -2.703125 -0.328125q-1.609375 0 -2.71875 0.375q-1.109375 0.359375 -1.71875 0.890625zm19.148788 4.5q1.921875 -2.8125 5.71875 -2.8125q3.453125 0 5.609375 2.390625q2.140625 2.375 2.140625 5.859375q0 3.484375 -2.140625 5.859375q-2.15625 2.390625 -5.765625 2.390625q-3.609375 0 -5.5625 -2.84375l0 8.9375l-2.40625 0l0 -22.34375l2.40625 0l0 2.5625zm5.40625 -0.640625q-2.59375 0 -4.09375 1.796875q-1.4375 1.6875 -1.4375 4.28125q0 2.59375 1.4375 4.28125q1.5 1.796875 4.09375 1.796875q2.5625 0 4.15625 -1.796875q1.5 -1.6875 1.5 -4.28125q0 -2.59375 -1.5 -4.28125q-1.59375 -1.796875 -4.15625 -1.796875zm13.601791 14.078125l-2.40625 0l0 -22.40625l2.40625 0l0 22.40625zm4.153763 -16.0l2.40625 0l0 16.0l-2.40625 0l0 -16.0zm2.5 -5.828125l0 3.140625l-2.59375 0l0 -3.140625l2.59375 0zm5.794388 21.828125l0 -13.890625l-3.265625 0l0 -2.109375l3.265625 0l0 -5.734375l2.390625 0l0 5.734375l3.6875 0l0 2.109375l-3.6875 0l0 13.890625l-2.390625 0z" fill-rule="nonzero"></path><path fill="#000000" fill-opacity="0.0" d="m192.00026 505.55783l0 64.09451" fill-rule="evenodd"></path><path stroke="#595959" stroke-width="4.0" stroke-linejoin="round" stroke-linecap="butt" d="m192.00026 505.55783l0 40.09445" fill-rule="evenodd"></path><path fill="#595959" stroke="#595959" stroke-width="4.0" stroke-linecap="butt" d="m185.39334 545.65234l6.6069183 18.152344l6.6069336 -18.152344z" fill-rule="evenodd"></path><path fill="#000000" fill-opacity="0.0" d="m240.66927 635.021l96.53502 0l0 -615.412l-145.19644 0l0 24.986795" fill-rule="evenodd"></path><path stroke="#595959" stroke-width="4.0" stroke-linejoin="round" stroke-linecap="butt" stroke-dasharray="16.0,12.0" d="m240.66927 635.021l96.53502 0l0 -615.412l-145.19643 0l0 0.98679733" fill-rule="evenodd"></path><path fill="#595959" stroke="#595959" stroke-width="4.0" stroke-linecap="butt" d="m185.40092 20.595802l6.6069336 18.15239l6.6069183 -18.15239z" fill-rule="evenodd"></path></g></svg>

