<?xml version="1.0" standalone="yes"?>

<svg version="1.1" viewBox="0.0 0.0 960.0 720.0" fill="none" stroke="none" stroke-linecap="square" stroke-miterlimit="10" xmlns="http://www.w3.org/2000/svg" xmlns:xlink="http://www.w3.org/1999/xlink"><clipPath id="g25eaa9bc46_0_239.0"><path d="m0 0l960.0 0l0 720.0l-960.0 0l0 -720.0z" clip-rule="nonzero"></path></clipPath><g clip-path="url(#g25eaa9bc46_0_239.0)"><path fill="#ffffff" d="m0 0l960.0 0l0 720.0l-960.0 0z" fill-rule="evenodd"></path><path fill="#eeeeee" d="m30.968504 296.85828c0 11.624054 52.64003 21.047241 117.5748 21.047241c64.93477 0 117.5748 -9.423187 117.5748 -21.047241l0 126.28345c0 11.624084 -52.64003 21.047241 -117.5748 21.047241c-64.93477 0 -117.5748 -9.423157 -117.5748 -21.047241z" fill-rule="evenodd"></path><path fill="#f4f4f4" d="m30.968504 296.85828c0 -11.624084 52.64003 -21.047241 117.5748 -21.047241c64.93477 0 117.5748 9.423157 117.5748 21.047241l0 0c0 11.624054 -52.64003 21.047241 -117.5748 21.047241c-64.93477 0 -117.5748 -9.423187 -117.5748 -21.047241z" fill-rule="evenodd"></path><path fill="#000000" fill-opacity="0.0" d="m266.1181 296.85828l0 0c0 11.624054 -52.64003 21.047241 -117.5748 21.047241c-64.93477 0 -117.5748 -9.423187 -117.5748 -21.047241c0 -11.624084 52.64003 -21.047241 117.5748 -21.047241c64.93477 0 117.5748 9.423157 117.5748 21.047241l0 126.28345c0 11.624084 -52.64003 21.047241 -117.5748 21.047241c-64.93477 0 -117.5748 -9.423157 -117.5748 -21.047241l0 -126.28345" fill-rule="evenodd"></path><path stroke="#595959" stroke-width="4.0" stroke-linejoin="round" stroke-linecap="butt" d="m266.1181 296.85828l0 0c0 11.624054 -52.64003 21.047241 -117.5748 21.047241c-64.93477 0 -117.5748 -9.423187 -117.5748 -21.047241c0 -11.624084 52.64003 -21.047241 117.5748 -21.047241c64.93477 0 117.5748 9.423157 117.5748 21.047241l0 126.28345c0 11.624084 -52.64003 21.047241 -117.5748 21.047241c-64.93477 0 -117.5748 -9.423157 -117.5748 -21.047241l0 -126.28345" fill-rule="evenodd"></path><path fill="#000000" d="m118.54961 358.43924q2.359375 0 4.546875 0.90625q2.203125 0.890625 3.890625 2.625q3.71875 3.796875 3.71875 9.71875q0 5.921875 -3.71875 9.71875q-1.6875 1.71875 -3.890625 2.625q-2.1875 0.890625 -4.546875 0.890625l-11.171875 0l0 -26.484375l11.171875 0zm-0.125 23.640625q4.15625 0 6.765625 -3.078125q2.515625 -2.953125 2.515625 -7.3125q0 -4.359375 -2.515625 -7.328125q-2.609375 -3.078125 -6.765625 -3.078125l-8.046875 0l0 20.796875l8.046875 0zm32.08185 -0.359375q-2.40625 3.515625 -7.15625 3.515625q-4.328125 0 -7.046875 -3.0q-2.640625 -2.953125 -2.640625 -7.3125q0 -4.359375 2.640625 -7.3125q2.71875 -3.0 7.234375 -3.0q4.53125 0 6.96875 3.546875l0 -3.234375l3.0 0l0 20.0l-3.0 0l0 -3.203125zm-6.765625 0.796875q3.25 0 5.125 -2.234375q1.796875 -2.125 1.796875 -5.359375q0 -3.234375 -1.796875 -5.359375q-1.875 -2.234375 -5.125 -2.234375q-3.203125 0 -5.203125 2.234375q-1.875 2.125 -1.875 5.359375q0 3.234375 1.875 5.359375q2.0 2.234375 5.203125 2.234375zm17.128098 2.40625l0 -17.359375l-4.078125 0l0 -2.640625l4.078125 0l0 -7.15625l3.0 0l0 7.15625l4.59375 0l0 2.640625l-4.59375 0l0 17.359375l-3.0 0zm26.477493 -3.203125q-2.40625 3.515625 -7.15625 3.515625q-4.328125 0 -7.046875 -3.0q-2.640625 -2.953125 -2.640625 -7.3125q0 -4.359375 2.640625 -7.3125q2.71875 -3.0 7.234375 -3.0q4.53125 0 6.96875 3.546875l0 -3.234375l3.0 0l0 20.0l-3.0 0l0 -3.203125zm-6.765625 0.796875q3.25 0 5.125 -2.234375q1.796875 -2.125 1.796875 -5.359375q0 -3.234375 -1.796875 -5.359375q-1.875 -2.234375 -5.125 -2.234375q-3.203125 0 -5.203125 2.234375q-1.875 2.125 -1.875 5.359375q0 3.234375 1.875 5.359375q2.0 2.234375 5.203125 2.234375z" fill-rule="nonzero"></path><path fill="#000000" fill-opacity="0.0" d="m266.1181 360.0l81.29135 0" fill-rule="evenodd"></path><path stroke="#595959" stroke-width="4.0" stroke-linejoin="round" stroke-linecap="butt" d="m266.1181 360.0l57.29135 0" fill-rule="evenodd"></path><path fill="#595959" stroke="#595959" stroke-width="4.0" stroke-linecap="butt" d="m323.40945 366.60693l18.152374 -6.6069336l-18.152374 -6.6069336z" fill-rule="evenodd"></path><path fill="#eeeeee" d="m347.41733 265.64304l239.03433 0l0 151.33792c-119.51718 0 -119.51718 57.662506 -239.03433 24.89972z" fill-rule="evenodd"></path><path stroke="#595959" stroke-width="4.0" stroke-linejoin="round" stroke-linecap="butt" d="m347.41733 265.64304l239.03433 0l0 151.33792c-119.51718 0 -119.51718 57.662506 -239.03433 24.89972z" fill-rule="evenodd"></path><path fill="#000000" d="m357.12045 306.70074l1.234375 0l0 0.84375q0.296875 -0.46875 0.765625 -0.75q0.46875 -0.296875 0.96875 -0.296875q0.5625 0 0.984375 0.359375q0.421875 0.359375 0.53125 0.890625q0.234375 -0.5625 0.75 -0.90625q0.53125 -0.34375 1.171875 -0.34375q0.84375 0 1.25 0.609375q0.421875 0.609375 0.390625 1.578125l0 6.546875l-1.234375 0l0 -6.046875q0 -1.0625 -0.203125 -1.375q-0.203125 -0.328125 -0.59375 -0.328125q-0.34375 0 -0.65625 0.328125q-0.3125 0.3125 -0.515625 0.8125q-0.1875 0.484375 -0.1875 0.96875l0 5.640625l-1.25 0l0 -5.9375q0 -1.046875 -0.203125 -1.40625q-0.1875 -0.359375 -0.734375 -0.359375q-0.28125 0 -0.578125 0.25q-0.28125 0.25 -0.46875 0.71875q-0.1875 0.453125 -0.1875 1.046875l0 5.6875l-1.234375 0l0 -8.53125zm16.890625 0q-0.109375 0.765625 -0.34375 1.515625q-0.234375 0.75 -0.671875 1.984375l-2.125 6.0q-0.421875 1.203125 -1.109375 1.734375q-0.6875 0.546875 -1.640625 0.546875q-1.203125 0 -1.96875 -0.734375l0.578125 -0.90625l0.015625 -0.03125l0.03125 0.03125q0.296875 0.28125 0.625 0.40625q0.34375 0.125 0.78125 0.125q0.703125 0 1.109375 -0.484375q0.40625 -0.484375 0.796875 -1.59375l-3.484375 -8.59375l1.390625 0l2.65625 6.828125l1.125 -3.421875q0.40625 -1.296875 0.59375 -1.96875q0.203125 -0.6875 0.296875 -1.4375l1.34375 0zm-7.046875 10.0625q0 0.03125 -0.046875 0.03125l-0.140625 -0.03125l0.0625 -0.09375l0.125 0.078125l0 0.015625zm-0.21875 0.046875q-0.078125 -0.078125 -0.046875 -0.0625q0.046875 0.015625 0.078125 0.015625l-0.03125 0.046875zm8.984375 -0.078125l0 -1.140625l8.03125 0l0 1.140625l-8.03125 0zm13.03125 -1.3125q-0.90625 0 -1.71875 -0.515625q-0.796875 -0.515625 -1.296875 -1.53125q-0.5 -1.03125 -0.5 -2.484375q0 -1.484375 0.515625 -2.46875q0.53125 -0.984375 1.34375 -1.453125q0.828125 -0.484375 1.734375 -0.484375q0.859375 0 1.5 0.390625q0.640625 0.390625 0.984375 1.078125l0 -5.125l1.421875 0l0 0.125q-0.109375 0.125 -0.140625 0.25q-0.03125 0.125 -0.03125 0.453125l0.015625 10.25q0 0.453125 0.03125 0.75q0.03125 0.28125 0.15625 0.578125l-1.328125 0q-0.125 -0.296875 -0.15625 -0.578125q-0.03125 -0.296875 -0.03125 -0.75q-0.40625 0.71875 -1.046875 1.125q-0.640625 0.390625 -1.453125 0.390625zm0.21875 -1.171875q1.15625 0 1.6875 -0.90625q0.546875 -0.921875 0.546875 -2.421875q0 -1.515625 -0.59375 -2.421875q-0.578125 -0.921875 -1.765625 -0.921875q-1.109375 0 -1.71875 0.84375q-0.59375 0.828125 -0.59375 2.265625q0 1.640625 0.625 2.609375q0.625 0.953125 1.8125 0.953125zm9.296875 -7.734375q1.828125 0 2.78125 0.953125q0.96875 0.953125 0.96875 3.234375l0 4.53125l-1.453125 0l0 -1.3125q-0.78125 1.515625 -2.90625 1.515625q-1.421875 0 -2.21875 -0.640625q-0.796875 -0.640625 -0.796875 -1.703125q0 -0.90625 0.578125 -1.578125q0.578125 -0.671875 1.546875 -1.03125q0.984375 -0.359375 2.15625 -0.359375q1.0625 0 1.921875 0.109375q-0.109375 -1.4375 -0.75 -2.015625q-0.640625 -0.59375 -1.921875 -0.59375q-0.625 0 -1.21875 0.25q-0.578125 0.234375 -1.0625 0.703125l-0.65625 -0.859375q1.1875 -1.203125 3.03125 -1.203125zm-0.484375 7.890625q1.390625 0 2.1875 -0.796875q0.796875 -0.8125 0.875 -2.34375q-0.84375 -0.140625 -1.8125 -0.140625q-1.40625 0 -2.234375 0.46875q-0.828125 0.46875 -0.828125 1.421875q0 1.390625 1.8125 1.390625zm13.546875 0.046875q-1.234375 0.90625 -2.703125 0.90625q-1.421875 0 -2.015625 -0.84375q-0.578125 -0.859375 -0.578125 -2.8125q0 -0.3125 0.03125 -1.09375l0.171875 -2.796875l-1.875 0l0 -1.109375l1.953125 0l0.125 -2.265625l1.5 -0.25l0.1875 -0.015625l0.015625 0.109375q-0.125 0.1875 -0.203125 0.328125q-0.0625 0.125 -0.078125 0.40625l-0.203125 1.6875l2.828125 0l0 1.109375l-2.90625 0l-0.171875 2.890625q-0.03125 0.75 -0.03125 0.984375q0 1.5 0.34375 2.03125q0.34375 0.53125 1.109375 0.53125q0.5625 0 1.03125 -0.203125q0.46875 -0.21875 1.0625 -0.65625l0.40625 1.0625zm5.59375 -7.9375q1.828125 0 2.78125 0.953125q0.96875 0.953125 0.96875 3.234375l0 4.53125l-1.453125 0l0 -1.3125q-0.78125 1.515625 -2.90625 1.515625q-1.421875 0 -2.21875 -0.640625q-0.796875 -0.640625 -0.796875 -1.703125q0 -0.90625 0.578125 -1.578125q0.578125 -0.671875 1.546875 -1.03125q0.984375 -0.359375 2.15625 -0.359375q1.0625 0 1.921875 0.109375q-0.109375 -1.4375 -0.75 -2.015625q-0.640625 -0.59375 -1.921875 -0.59375q-0.625 0 -1.21875 0.25q-0.578125 0.234375 -1.0625 0.703125l-0.65625 -0.859375q1.1875 -1.203125 3.03125 -1.203125zm-0.484375 7.890625q1.390625 0 2.1875 -0.796875q0.796875 -0.8125 0.875 -2.34375q-0.84375 -0.140625 -1.8125 -0.140625q-1.40625 0 -2.234375 0.46875q-0.828125 0.46875 -0.828125 1.421875q0 1.390625 1.8125 1.390625zm15.4375 -6.203125l0 -1.140625l7.65625 0l0 1.140625l-7.65625 0zm0 2.921875l0 -1.140625l7.65625 0l0 1.140625l-7.65625 0z" fill-rule="nonzero"></path><path fill="#000000" d="m357.88608 337.232l0 -1.078125l2.53125 0l0 -10.25l-2.421875 0l0 -1.078125l3.78125 0l0 11.328125l2.5 0l0 1.078125l-6.390625 0zm12.53125 0.15625q-1.140625 0 -2.046875 -0.5625q-0.890625 -0.5625 -1.390625 -1.5625q-0.5 -1.015625 -0.5 -2.296875q0 -1.296875 0.5 -2.296875q0.5 -1.015625 1.390625 -1.578125q0.90625 -0.578125 2.046875 -0.578125q1.125 0 2.015625 0.578125q0.90625 0.5625 1.40625 1.578125q0.5 1.0 0.5 2.296875q0 1.28125 -0.5 2.296875q-0.5 1.0 -1.40625 1.5625q-0.890625 0.5625 -2.015625 0.5625zm0 -1.125q0.71875 0 1.28125 -0.421875q0.578125 -0.4375 0.90625 -1.1875q0.328125 -0.765625 0.328125 -1.71875q0 -1.453125 -0.71875 -2.375q-0.703125 -0.921875 -1.796875 -0.921875q-1.109375 0 -1.828125 0.921875q-0.703125 0.921875 -0.703125 2.375q0 0.953125 0.328125 1.71875q0.328125 0.75 0.890625 1.1875q0.578125 0.421875 1.3125 0.421875zm9.203125 -7.75q1.828125 0 2.78125 0.953125q0.96875 0.953125 0.96875 3.234375l0 4.53125l-1.453125 0l0 -1.3125q-0.78125 1.515625 -2.90625 1.515625q-1.421875 0 -2.21875 -0.640625q-0.796875 -0.640625 -0.796875 -1.703125q0 -0.90625 0.578125 -1.578125q0.578125 -0.671875 1.546875 -1.03125q0.984375 -0.359375 2.15625 -0.359375q1.0625 0 1.921875 0.109375q-0.109375 -1.4375 -0.75 -2.015625q-0.640625 -0.59375 -1.921875 -0.59375q-0.625 0 -1.21875 0.25q-0.578125 0.234375 -1.0625 0.703125l-0.65625 -0.859375q1.1875 -1.203125 3.03125 -1.203125zm-0.484375 7.890625q1.390625 0 2.1875 -0.796875q0.796875 -0.8125 0.875 -2.34375q-0.84375 -0.140625 -1.8125 -0.140625q-1.40625 0 -2.234375 0.46875q-0.828125 0.46875 -0.828125 1.421875q0 1.390625 1.8125 1.390625zm9.625 1.015625q-0.90625 0 -1.71875 -0.515625q-0.796875 -0.515625 -1.296875 -1.53125q-0.5 -1.03125 -0.5 -2.484375q0 -1.484375 0.515625 -2.46875q0.53125 -0.984375 1.34375 -1.453125q0.828125 -0.484375 1.734375 -0.484375q0.859375 0 1.5 0.390625q0.640625 0.390625 0.984375 1.078125l0 -5.125l1.421875 0l0 0.125q-0.109375 0.125 -0.140625 0.25q-0.03125 0.125 -0.03125 0.453125l0.015625 10.25q0 0.453125 0.03125 0.75q0.03125 0.28125 0.15625 0.578125l-1.328125 0q-0.125 -0.296875 -0.15625 -0.578125q-0.03125 -0.296875 -0.03125 -0.75q-0.40625 0.71875 -1.046875 1.125q-0.640625 0.390625 -1.453125 0.390625zm0.21875 -1.171875q1.15625 0 1.6875 -0.90625q0.546875 -0.921875 0.546875 -2.421875q0 -1.515625 -0.59375 -2.421875q-0.578125 -0.921875 -1.765625 -0.921875q-1.109375 0 -1.71875 0.84375q-0.59375 0.828125 -0.59375 2.265625q0 1.640625 0.625 2.609375q0.625 0.953125 1.8125 0.953125zm5.40625 2.484375l0 -1.140625l8.03125 0l0 1.140625l-8.03125 0zm16.78125 -11.859375l-0.015625 0.03125q-0.515625 -0.65625 -0.890625 -0.875q-0.359375 -0.234375 -1.015625 -0.234375q-0.875 0 -1.375 0.53125q-0.5 0.515625 -0.5 1.671875l0 0.703125l2.796875 0l0 1.0625l-2.796875 0l0 7.46875l-1.296875 0l0 -7.46875l-1.84375 0l0 -1.0625l1.84375 0l0 -0.703125q0 -1.640625 0.84375 -2.453125q0.859375 -0.828125 2.296875 -0.828125q0.828125 0 1.515625 0.296875q0.703125 0.296875 1.15625 0.875l-0.71875 0.984375zm-0.21875 0.0625q0 -0.0625 0.078125 -0.015625q0.078125 0.03125 0.09375 0.03125l-0.0625 0.078125l-0.109375 -0.078125l0 -0.015625zm0.203125 -0.03125q0.109375 0.140625 0.046875 0.09375q-0.0625 -0.046875 -0.078125 -0.046875l0.03125 -0.046875zm3.09375 10.328125l0 -1.078125l2.1875 0l0 -6.359375l-2.0625 0l0 -1.09375l3.40625 0l0 7.453125l2.0 0l0 1.078125l-5.53125 0zm2.78125 -10.3125q-0.390625 0 -0.671875 -0.28125q-0.28125 -0.28125 -0.28125 -0.671875q0 -0.40625 0.265625 -0.6875q0.28125 -0.28125 0.6875 -0.28125q0.390625 0 0.671875 0.296875q0.296875 0.28125 0.296875 0.671875q0 0.390625 -0.296875 0.671875q-0.28125 0.28125 -0.671875 0.28125zm6.15625 10.3125l0 -1.078125l2.53125 0l0 -10.25l-2.421875 0l0 -1.078125l3.78125 0l0 11.328125l2.5 0l0 1.078125l-6.390625 0zm12.9375 0.1875q-1.90625 0 -3.03125 -1.15625q-1.125 -1.15625 -1.125 -3.265625q0 -1.40625 0.515625 -2.421875q0.515625 -1.015625 1.40625 -1.546875q0.890625 -0.53125 1.984375 -0.53125q1.546875 0 2.5 1.03125q0.96875 1.03125 0.96875 3.015625q0 0.203125 -0.03125 0.625l-6.0625 0q0.078125 1.5625 0.875 2.375q0.796875 0.796875 2.03125 0.796875q1.34375 0 2.203125 -0.953125l0.75 0.71875q-1.078125 1.3125 -2.984375 1.3125zm1.859375 -5.296875q0 -1.203125 -0.609375 -1.890625q-0.59375 -0.703125 -1.59375 -0.703125q-0.921875 0 -1.625 0.65625q-0.6875 0.640625 -0.859375 1.9375l4.6875 0zm9.765625 8.359375q-1.53125 -0.71875 -2.6875 -1.953125q-1.15625 -1.21875 -1.78125 -2.765625q-0.625 -1.546875 -0.625 -3.203125q0 -1.640625 0.609375 -3.140625q0.609375 -1.515625 1.734375 -2.703125q1.140625 -1.1875 2.625 -1.890625l0.359375 1.15625q-1.828125 0.984375 -2.921875 2.78125q-1.09375 1.796875 -1.09375 3.859375q0 2.09375 1.125 3.921875q1.125 1.828125 3.0 2.8125l-0.34375 1.125zm4.671875 -10.09375q-0.5 0 -0.875 -0.4375q-0.375 -0.4375 -0.375 -1.109375q0 -1.53125 1.984375 -3.515625l0.625 0.578125q-0.5 0.453125 -0.859375 1.03125q-0.34375 0.578125 -0.34375 0.9375q0 0.140625 0.109375 0.28125q0.109375 0.140625 0.3125 0.3125q0.265625 0.21875 0.40625 0.40625q0.140625 0.1875 0.140625 0.4375q0 0.4375 -0.328125 0.765625q-0.3125 0.3125 -0.796875 0.3125zm3.859375 0q-0.5 0 -0.875 -0.4375q-0.375 -0.4375 -0.375 -1.109375q0 -1.53125 1.984375 -3.515625l0.640625 0.578125q-0.515625 0.453125 -0.875 1.03125q-0.34375 0.578125 -0.34375 0.9375q0 0.140625 0.109375 0.28125q0.109375 0.140625 0.3125 0.3125q0.265625 0.21875 0.40625 0.40625q0.140625 0.1875 0.140625 0.4375q0 0.4375 -0.3125 0.765625q-0.3125 0.3125 -0.8125 0.3125zm7.1875 7.046875q-0.4375 0 -0.765625 -0.3125q-0.3125 -0.3125 -0.3125 -0.75q0 -0.421875 0.3125 -0.734375q0.328125 -0.328125 0.765625 -0.328125q0.4375 0 0.75 0.328125q0.3125 0.3125 0.3125 0.734375q0 0.4375 -0.3125 0.75q-0.3125 0.3125 -0.75 0.3125zm9.328125 0q-0.4375 0 -0.765625 -0.3125q-0.3125 -0.3125 -0.3125 -0.75q0 -0.421875 0.3125 -0.734375q0.328125 -0.328125 0.765625 -0.328125q0.4375 0 0.75 0.328125q0.3125 0.3125 0.3125 0.734375q0 0.4375 -0.3125 0.75q-0.3125 0.3125 -0.75 0.3125zm9.328125 0q-0.4375 0 -0.765625 -0.3125q-0.3125 -0.3125 -0.3125 -0.75q0 -0.421875 0.3125 -0.734375q0.328125 -0.328125 0.765625 -0.328125q0.4375 0 0.75 0.328125q0.3125 0.3125 0.3125 0.734375q0 0.4375 -0.3125 0.75q-0.3125 0.3125 -0.75 0.3125z" fill-rule="nonzero"></path><path fill="#000000" d="m357.54233 350.70074l1.359375 0l0 1.6875q0.28125 -0.9375 0.96875 -1.40625q0.6875 -0.46875 1.625 -0.46875q0.96875 0 1.78125 0.5q0.8125 0.5 1.296875 1.484375q0.484375 0.984375 0.484375 2.40625q0 1.4375 -0.515625 2.46875q-0.5 1.03125 -1.328125 1.5625q-0.828125 0.515625 -1.765625 0.515625q-0.765625 0 -1.4375 -0.34375q-0.671875 -0.359375 -1.09375 -1.0l0 4.234375l-1.375 0l0 -11.640625zm3.6875 7.5625q1.03125 0 1.71875 -0.765625q0.703125 -0.78125 0.703125 -2.53125q0 -1.59375 -0.625 -2.4375q-0.609375 -0.859375 -1.734375 -0.859375q-1.0625 0 -1.734375 0.890625q-0.65625 0.890625 -0.65625 2.703125q0.03125 1.46875 0.640625 2.234375q0.625 0.765625 1.6875 0.765625zm5.984375 0.96875l0 -1.078125l2.53125 0l0 -10.25l-2.421875 0l0 -1.078125l3.78125 0l0 11.328125l2.5 0l0 1.078125l-6.390625 0zm12.53125 0.15625q-1.140625 0 -2.046875 -0.5625q-0.890625 -0.5625 -1.390625 -1.5625q-0.5 -1.015625 -0.5 -2.296875q0 -1.296875 0.5 -2.296875q0.5 -1.015625 1.390625 -1.578125q0.90625 -0.578125 2.046875 -0.578125q1.125 0 2.015625 0.578125q0.90625 0.5625 1.40625 1.578125q0.5 1.0 0.5 2.296875q0 1.28125 -0.5 2.296875q-0.5 1.0 -1.40625 1.5625q-0.890625 0.5625 -2.015625 0.5625zm0 -1.125q0.71875 0 1.28125 -0.421875q0.578125 -0.4375 0.90625 -1.1875q0.328125 -0.765625 0.328125 -1.71875q0 -1.453125 -0.71875 -2.375q-0.703125 -0.921875 -1.796875 -0.921875q-1.109375 0 -1.828125 0.921875q-0.703125 0.921875 -0.703125 2.375q0 0.953125 0.328125 1.71875q0.328125 0.75 0.890625 1.1875q0.578125 0.421875 1.3125 0.421875zm12.9375 0.1875q-1.234375 0.90625 -2.703125 0.90625q-1.421875 0 -2.015625 -0.84375q-0.578125 -0.859375 -0.578125 -2.8125q0 -0.3125 0.03125 -1.09375l0.171875 -2.796875l-1.875 0l0 -1.109375l1.953125 0l0.125 -2.265625l1.5 -0.25l0.1875 -0.015625l0.015625 0.109375q-0.125 0.1875 -0.203125 0.328125q-0.0625 0.125 -0.078125 0.40625l-0.203125 1.6875l2.828125 0l0 1.109375l-2.90625 0l-0.171875 2.890625q-0.03125 0.75 -0.03125 0.984375q0 1.5 0.34375 2.03125q0.34375 0.53125 1.109375 0.53125q0.5625 0 1.03125 -0.203125q0.46875 -0.21875 1.0625 -0.65625l0.40625 1.0625zm8.421875 4.03125q-1.53125 -0.71875 -2.6875 -1.953125q-1.15625 -1.21875 -1.78125 -2.765625q-0.625 -1.546875 -0.625 -3.203125q0 -1.640625 0.609375 -3.140625q0.609375 -1.515625 1.734375 -2.703125q1.140625 -1.1875 2.625 -1.890625l0.359375 1.15625q-1.828125 0.984375 -2.921875 2.78125q-1.09375 1.796875 -1.09375 3.859375q0 2.09375 1.125 3.921875q1.125 1.828125 3.0 2.8125l-0.34375 1.125zm2.65625 -11.78125l1.234375 0l0 0.84375q0.296875 -0.46875 0.765625 -0.75q0.46875 -0.296875 0.96875 -0.296875q0.5625 0 0.984375 0.359375q0.421875 0.359375 0.53125 0.890625q0.234375 -0.5625 0.75 -0.90625q0.53125 -0.34375 1.171875 -0.34375q0.84375 0 1.25 0.609375q0.421875 0.609375 0.390625 1.578125l0 6.546875l-1.234375 0l0 -6.046875q0 -1.0625 -0.203125 -1.375q-0.203125 -0.328125 -0.59375 -0.328125q-0.34375 0 -0.65625 0.328125q-0.3125 0.3125 -0.515625 0.8125q-0.1875 0.484375 -0.1875 0.96875l0 5.640625l-1.25 0l0 -5.9375q0 -1.046875 -0.203125 -1.40625q-0.1875 -0.359375 -0.734375 -0.359375q-0.28125 0 -0.578125 0.25q-0.28125 0.25 -0.46875 0.71875q-0.1875 0.453125 -0.1875 1.046875l0 5.6875l-1.234375 0l0 -8.53125zm16.890625 0q-0.109375 0.765625 -0.34375 1.515625q-0.234375 0.75 -0.671875 1.984375l-2.125 6.0q-0.421875 1.203125 -1.109375 1.734375q-0.6875 0.546875 -1.640625 0.546875q-1.203125 0 -1.96875 -0.734375l0.578125 -0.90625l0.015625 -0.03125l0.03125 0.03125q0.296875 0.28125 0.625 0.40625q0.34375 0.125 0.78125 0.125q0.703125 0 1.109375 -0.484375q0.40625 -0.484375 0.796875 -1.59375l-3.484375 -8.59375l1.390625 0l2.65625 6.828125l1.125 -3.421875q0.40625 -1.296875 0.59375 -1.96875q0.203125 -0.6875 0.296875 -1.4375l1.34375 0zm-7.046875 10.0625q0 0.03125 -0.046875 0.03125l-0.140625 -0.03125l0.0625 -0.09375l0.125 0.078125l0 0.015625zm-0.21875 0.046875q-0.078125 -0.078125 -0.046875 -0.0625q0.046875 0.015625 0.078125 0.015625l-0.03125 0.046875zm8.984375 -0.078125l0 -1.140625l8.03125 0l0 1.140625l-8.03125 0zm13.03125 -1.3125q-0.90625 0 -1.71875 -0.515625q-0.796875 -0.515625 -1.296875 -1.53125q-0.5 -1.03125 -0.5 -2.484375q0 -1.484375 0.515625 -2.46875q0.53125 -0.984375 1.34375 -1.453125q0.828125 -0.484375 1.734375 -0.484375q0.859375 0 1.5 0.390625q0.640625 0.390625 0.984375 1.078125l0 -5.125l1.421875 0l0 0.125q-0.109375 0.125 -0.140625 0.25q-0.03125 0.125 -0.03125 0.453125l0.015625 10.25q0 0.453125 0.03125 0.75q0.03125 0.28125 0.15625 0.578125l-1.328125 0q-0.125 -0.296875 -0.15625 -0.578125q-0.03125 -0.296875 -0.03125 -0.75q-0.40625 0.71875 -1.046875 1.125q-0.640625 0.390625 -1.453125 0.390625zm0.21875 -1.171875q1.15625 0 1.6875 -0.90625q0.546875 -0.921875 0.546875 -2.421875q0 -1.515625 -0.59375 -2.421875q-0.578125 -0.921875 -1.765625 -0.921875q-1.109375 0 -1.71875 0.84375q-0.59375 0.828125 -0.59375 2.265625q0 1.640625 0.625 2.609375q0.625 0.953125 1.8125 0.953125zm9.296875 -7.734375q1.828125 0 2.78125 0.953125q0.96875 0.953125 0.96875 3.234375l0 4.53125l-1.453125 0l0 -1.3125q-0.78125 1.515625 -2.90625 1.515625q-1.421875 0 -2.21875 -0.640625q-0.796875 -0.640625 -0.796875 -1.703125q0 -0.90625 0.578125 -1.578125q0.578125 -0.671875 1.546875 -1.03125q0.984375 -0.359375 2.15625 -0.359375q1.0625 0 1.921875 0.109375q-0.109375 -1.4375 -0.75 -2.015625q-0.640625 -0.59375 -1.921875 -0.59375q-0.625 0 -1.21875 0.25q-0.578125 0.234375 -1.0625 0.703125l-0.65625 -0.859375q1.1875 -1.203125 3.03125 -1.203125zm-0.484375 7.890625q1.390625 0 2.1875 -0.796875q0.796875 -0.8125 0.875 -2.34375q-0.84375 -0.140625 -1.8125 -0.140625q-1.40625 0 -2.234375 0.46875q-0.828125 0.46875 -0.828125 1.421875q0 1.390625 1.8125 1.390625zm13.546875 0.046875q-1.234375 0.90625 -2.703125 0.90625q-1.421875 0 -2.015625 -0.84375q-0.578125 -0.859375 -0.578125 -2.8125q0 -0.3125 0.03125 -1.09375l0.171875 -2.796875l-1.875 0l0 -1.109375l1.953125 0l0.125 -2.265625l1.5 -0.25l0.1875 -0.015625l0.015625 0.109375q-0.125 0.1875 -0.203125 0.328125q-0.0625 0.125 -0.078125 0.40625l-0.203125 1.6875l2.828125 0l0 1.109375l-2.90625 0l-0.171875 2.890625q-0.03125 0.75 -0.03125 0.984375q0 1.5 0.34375 2.03125q0.34375 0.53125 1.109375 0.53125q0.5625 0 1.03125 -0.203125q0.46875 -0.21875 1.0625 -0.65625l0.40625 1.0625zm5.59375 -7.9375q1.828125 0 2.78125 0.953125q0.96875 0.953125 0.96875 3.234375l0 4.53125l-1.453125 0l0 -1.3125q-0.78125 1.515625 -2.90625 1.515625q-1.421875 0 -2.21875 -0.640625q-0.796875 -0.640625 -0.796875 -1.703125q0 -0.90625 0.578125 -1.578125q0.578125 -0.671875 1.546875 -1.03125q0.984375 -0.359375 2.15625 -0.359375q1.0625 0 1.921875 0.109375q-0.109375 -1.4375 -0.75 -2.015625q-0.640625 -0.59375 -1.921875 -0.59375q-0.625 0 -1.21875 0.25q-0.578125 0.234375 -1.0625 0.703125l-0.65625 -0.859375q1.1875 -1.203125 3.03125 -1.203125zm-0.484375 7.890625q1.390625 0 2.1875 -0.796875q0.796875 -0.8125 0.875 -2.34375q-0.84375 -0.140625 -1.8125 -0.140625q-1.40625 0 -2.234375 0.46875q-0.828125 0.46875 -0.828125 1.421875q0 1.390625 1.8125 1.390625zm7.390625 2.953125q1.890625 -0.984375 3.0 -2.8125q1.125 -1.828125 1.125 -3.921875q0 -2.0625 -1.09375 -3.859375q-1.09375 -1.796875 -2.921875 -2.78125l0.359375 -1.15625q1.484375 0.703125 2.609375 1.890625q1.140625 1.1875 1.75 2.703125q0.625 1.5 0.625 3.140625q0 1.65625 -0.625 3.203125q-0.625 1.546875 -1.78125 2.765625q-1.15625 1.234375 -2.6875 1.953125l-0.359375 -1.125z" fill-rule="nonzero"></path><path fill="#eeeeee" d="m667.7507 270.96063l253.54327 0l0 178.07874l-253.54327 0z" fill-rule="evenodd"></path><path stroke="#595959" stroke-width="4.0" stroke-linejoin="round" stroke-linecap="butt" d="m667.7507 270.96063l253.54327 0l0 178.07874l-253.54327 0z" fill-rule="evenodd"></path><path fill="#000000" d="m780.36523 351.74313q-2.890625 4.65625 -2.890625 10.078125q0 5.421875 2.890625 10.03125l-1.640625 0q-3.0625 -4.78125 -3.0625 -10.0625q0 -5.28125 3.0625 -10.046875l1.640625 0zm11.942505 4.796875l-4.671875 12.0l-2.109375 0l-4.703125 -12.0l1.96875 0l3.78125 10.078125l3.765625 -10.078125l1.96875 0zm1.6890869 0l1.796875 0l0 12.0l-1.796875 0l0 -12.0zm1.875 -4.375l0 2.359375l-1.953125 0l0 -2.359375l1.953125 0zm4.482483 14.6875l7.203125 0l0 1.6875l-9.453125 0l0 -1.703125l7.171875 -8.640625l-7.078125 0l0 -1.65625l9.359375 0l0 1.6875l-7.203125 8.625zm8.335693 5.0q2.875 -4.609375 2.875 -10.03125q0 -5.421875 -2.875 -10.078125l1.625 0q3.078125 4.765625 3.078125 10.046875q0 5.28125 -3.078125 10.0625l-1.625 0z" fill-rule="nonzero"></path><path fill="#000000" fill-opacity="0.0" d="m586.45166 359.9999l81.29132 0" fill-rule="evenodd"></path><path stroke="#595959" stroke-width="4.0" stroke-linejoin="round" stroke-linecap="butt" d="m586.45166 359.99988l57.29132 0" fill-rule="evenodd"></path><path fill="#595959" stroke="#595959" stroke-width="4.0" stroke-linecap="butt" d="m643.743 366.6068l18.152405 -6.6069336l-18.152405 -6.6069336z" fill-rule="evenodd"></path></g></svg>

