<?xml version="1.0" standalone="yes"?>

<svg version="1.1" viewBox="0.0 0.0 960.0 720.0" fill="none" stroke="none" stroke-linecap="square" stroke-miterlimit="10" xmlns="http://www.w3.org/2000/svg" xmlns:xlink="http://www.w3.org/1999/xlink"><clipPath id="g35e10bcdf7_0_411.0"><path d="m0 0l960.0 0l0 720.0l-960.0 0l0 -720.0z" clip-rule="nonzero"></path></clipPath><g clip-path="url(#g35e10bcdf7_0_411.0)"><path fill="#ffffff" d="m0 0l960.0 0l0 720.0l-960.0 0z" fill-rule="evenodd"></path><path fill="#000000" fill-opacity="0.0" d="m91.77165 496.6614l0 -273.3228" fill-rule="evenodd"></path><path stroke="#595959" stroke-width="4.0" stroke-linejoin="round" stroke-linecap="butt" d="m91.77165 496.6614l0 -249.32283" fill-rule="evenodd"></path><path fill="#595959" stroke="#595959" stroke-width="4.0" stroke-linecap="butt" d="m98.378586 247.33858l-6.6069336 -18.15239l-6.606926 18.15239z" fill-rule="evenodd"></path><path fill="#000000" fill-opacity="0.0" d="m91.77165 496.6614l273.3228 0" fill-rule="evenodd"></path><path stroke="#595959" stroke-width="4.0" stroke-linejoin="round" stroke-linecap="butt" d="m91.77165 496.6614l249.32283 0" fill-rule="evenodd"></path><path fill="#595959" stroke="#595959" stroke-width="4.0" stroke-linecap="butt" d="m341.09448 503.26834l18.152405 -6.6069336l-18.152405 -6.6069336z" fill-rule="evenodd"></path><path fill="#eeeeee" d="m174.38846 311.04462l0 0c0 -4.8357544 3.9201508 -8.75589 8.755905 -8.75589l0 0c2.3222046 0 4.549301 0.92248535 6.1913605 2.5645447c1.6420441 1.6420288 2.5645447 3.8691406 2.5645447 6.191345l0 0c0 4.8357544 -3.920166 8.75592 -8.755905 8.75592l0 0c-4.8357544 0 -8.755905 -3.920166 -8.755905 -8.75592z" fill-rule="evenodd"></path><path stroke="#595959" stroke-width="1.0" stroke-linejoin="round" stroke-linecap="butt" d="m174.38846 311.04462l0 0c0 -4.8357544 3.9201508 -8.75589 8.755905 -8.75589l0 0c2.3222046 0 4.549301 0.92248535 6.1913605 2.5645447c1.6420441 1.6420288 2.5645447 3.8691406 2.5645447 6.191345l0 0c0 4.8357544 -3.920166 8.75592 -8.755905 8.75592l0 0c-4.8357544 0 -8.755905 -3.920166 -8.755905 -8.75592z" fill-rule="evenodd"></path><path fill="#eeeeee" d="m159.96588 347.04462l0 0c0 -4.8357544 3.9201508 -8.75589 8.755905 -8.75589l0 0c2.3222046 0 4.549301 0.92248535 6.1913605 2.5645447c1.6420441 1.6420288 2.5645447 3.8691406 2.5645447 6.191345l0 0c0 4.8357544 -3.9201508 8.75592 -8.755905 8.75592l0 0c-4.8357544 0 -8.755905 -3.920166 -8.755905 -8.75592z" fill-rule="evenodd"></path><path stroke="#595959" stroke-width="1.0" stroke-linejoin="round" stroke-linecap="butt" d="m159.96588 347.04462l0 0c0 -4.8357544 3.9201508 -8.75589 8.755905 -8.75589l0 0c2.3222046 0 4.549301 0.92248535 6.1913605 2.5645447c1.6420441 1.6420288 2.5645447 3.8691406 2.5645447 6.191345l0 0c0 4.8357544 -3.9201508 8.75592 -8.755905 8.75592l0 0c-4.8357544 0 -8.755905 -3.920166 -8.755905 -8.75592z" fill-rule="evenodd"></path><path fill="#eeeeee" d="m220.87665 316.37796l0 0c0 -4.8357544 3.9201508 -8.75592 8.755905 -8.75592l0 0c2.3222046 0 4.549301 0.92251587 6.1913605 2.5645447c1.6420441 1.6420593 2.5645447 3.8691711 2.5645447 6.1913757l0 0c0 4.8357544 -3.920166 8.75589 -8.755905 8.75589l0 0c-4.8357544 0 -8.755905 -3.9201355 -8.755905 -8.75589z" fill-rule="evenodd"></path><path stroke="#595959" stroke-width="1.0" stroke-linejoin="round" stroke-linecap="butt" d="m220.87665 316.37796l0 0c0 -4.8357544 3.9201508 -8.75592 8.755905 -8.75592l0 0c2.3222046 0 4.549301 0.92251587 6.1913605 2.5645447c1.6420441 1.6420593 2.5645447 3.8691711 2.5645447 6.1913757l0 0c0 4.8357544 -3.920166 8.75589 -8.755905 8.75589l0 0c-4.8357544 0 -8.755905 -3.9201355 -8.755905 -8.75589z" fill-rule="evenodd"></path><path fill="#eeeeee" d="m177.47769 383.1286l0 0c0 -4.8357544 3.9201508 -8.75589 8.755905 -8.75589l0 0c2.3222046 0 4.549301 0.92248535 6.1913605 2.5645447c1.6420441 1.6420288 2.5645447 3.8691406 2.5645447 6.191345l0 0c0 4.8357544 -3.9201508 8.75592 -8.755905 8.75592l0 0c-4.8357544 0 -8.755905 -3.920166 -8.755905 -8.75592z" fill-rule="evenodd"></path><path stroke="#595959" stroke-width="1.0" stroke-linejoin="round" stroke-linecap="butt" d="m177.47769 383.1286l0 0c0 -4.8357544 3.9201508 -8.75589 8.755905 -8.75589l0 0c2.3222046 0 4.549301 0.92248535 6.1913605 2.5645447c1.6420441 1.6420288 2.5645447 3.8691406 2.5645447 6.191345l0 0c0 4.8357544 -3.9201508 8.75592 -8.755905 8.75592l0 0c-4.8357544 0 -8.755905 -3.920166 -8.755905 -8.75592z" fill-rule="evenodd"></path><path fill="#eeeeee" d="m220.87665 355.59973l0 0c0 -4.8357544 3.9201508 -8.75589 8.755905 -8.75589l0 0c2.3222046 0 4.549301 0.92248535 6.1913605 2.5645447c1.6420441 1.6420288 2.5645447 3.8691406 2.5645447 6.191345l0 0c0 4.8357544 -3.920166 8.75592 -8.755905 8.75592l0 0c-4.8357544 0 -8.755905 -3.920166 -8.755905 -8.75592z" fill-rule="evenodd"></path><path stroke="#595959" stroke-width="1.0" stroke-linejoin="round" stroke-linecap="butt" d="m220.87665 355.59973l0 0c0 -4.8357544 3.9201508 -8.75589 8.755905 -8.75589l0 0c2.3222046 0 4.549301 0.92248535 6.1913605 2.5645447c1.6420441 1.6420288 2.5645447 3.8691406 2.5645447 6.191345l0 0c0 4.8357544 -3.920166 8.75592 -8.755905 8.75592l0 0c-4.8357544 0 -8.755905 -3.920166 -8.755905 -8.75592z" fill-rule="evenodd"></path><path fill="#000000" fill-opacity="0.0" d="m594.9055 496.6614l0 -273.3228" fill-rule="evenodd"></path><path stroke="#595959" stroke-width="4.0" stroke-linejoin="round" stroke-linecap="butt" d="m594.9055 496.6614l0 -249.32283" fill-rule="evenodd"></path><path fill="#595959" stroke="#595959" stroke-width="4.0" stroke-linecap="butt" d="m601.51245 247.33858l-6.6069336 -18.15239l-6.6069336 18.15239z" fill-rule="evenodd"></path><path fill="#000000" fill-opacity="0.0" d="m594.9055 496.6614l273.3228 0" fill-rule="evenodd"></path><path stroke="#595959" stroke-width="4.0" stroke-linejoin="round" stroke-linecap="butt" d="m594.9055 496.6614l249.32281 0" fill-rule="evenodd"></path><path fill="#595959" stroke="#595959" stroke-width="4.0" stroke-linecap="butt" d="m844.22833 503.26834l18.152405 -6.6069336l-18.152405 -6.6069336z" fill-rule="evenodd"></path><path fill="#eeeeee" d="m628.853 400.6404l0 0c0 -4.8357544 3.920166 -8.75589 8.75592 -8.75589l0 0c2.3222046 0 4.5492554 0.92248535 6.191345 2.5645447c1.6420288 1.6420593 2.5645142 3.8691406 2.5645142 6.191345l0 0c0 4.8357544 -3.920105 8.75592 -8.755859 8.75592l0 0c-4.8357544 0 -8.75592 -3.920166 -8.75592 -8.75592z" fill-rule="evenodd"></path><path stroke="#595959" stroke-width="1.0" stroke-linejoin="round" stroke-linecap="butt" d="m628.853 400.6404l0 0c0 -4.8357544 3.920166 -8.75589 8.75592 -8.75589l0 0c2.3222046 0 4.5492554 0.92248535 6.191345 2.5645447c1.6420288 1.6420593 2.5645142 3.8691406 2.5645142 6.191345l0 0c0 4.8357544 -3.920105 8.75592 -8.755859 8.75592l0 0c-4.8357544 0 -8.75592 -3.920166 -8.75592 -8.75592z" fill-rule="evenodd"></path><path fill="#eeeeee" d="m722.81104 437.09186l0 0c0 -4.8357544 3.920166 -8.75589 8.75592 -8.75589l0 0c2.3222046 0 4.5492554 0.92248535 6.191345 2.5645447c1.6420288 1.6420288 2.5645142 3.8691406 2.5645142 6.191345l0 0c0 4.8357544 -3.920105 8.75592 -8.755859 8.75592l0 0c-4.8357544 0 -8.75592 -3.920166 -8.75592 -8.75592z" fill-rule="evenodd"></path><path stroke="#595959" stroke-width="1.0" stroke-linejoin="round" stroke-linecap="butt" d="m722.81104 437.09186l0 0c0 -4.8357544 3.920166 -8.75589 8.75592 -8.75589l0 0c2.3222046 0 4.5492554 0.92248535 6.191345 2.5645447c1.6420288 1.6420288 2.5645142 3.8691406 2.5645142 6.191345l0 0c0 4.8357544 -3.920105 8.75592 -8.755859 8.75592l0 0c-4.8357544 0 -8.75592 -3.920166 -8.75592 -8.75592z" fill-rule="evenodd"></path><path fill="#eeeeee" d="m650.7021 350.5958l0 0c0 -4.8357544 3.920166 -8.75589 8.75592 -8.75589l0 0c2.3222046 0 4.5493164 0.92248535 6.191345 2.5645447c1.6420898 1.6420288 2.5645752 3.8691406 2.5645752 6.191345l0 0c0 4.8357544 -3.920166 8.75592 -8.75592 8.75592l0 0c-4.8357544 0 -8.75592 -3.920166 -8.75592 -8.75592z" fill-rule="evenodd"></path><path stroke="#595959" stroke-width="1.0" stroke-linejoin="round" stroke-linecap="butt" d="m650.7021 350.5958l0 0c0 -4.8357544 3.920166 -8.75589 8.75592 -8.75589l0 0c2.3222046 0 4.5493164 0.92248535 6.191345 2.5645447c1.6420898 1.6420288 2.5645752 3.8691406 2.5645752 6.191345l0 0c0 4.8357544 -3.920166 8.75592 -8.75592 8.75592l0 0c-4.8357544 0 -8.75592 -3.920166 -8.75592 -8.75592z" fill-rule="evenodd"></path><path fill="#eeeeee" d="m764.6352 423.5092l0 0c0 -4.8357544 3.920105 -8.75589 8.755859 -8.75589l0 0c2.3222046 0 4.5493164 0.92248535 6.1914062 2.5645447c1.6420288 1.6420288 2.5645142 3.8691406 2.5645142 6.191345l0 0c0 4.8357544 -3.920166 8.75592 -8.75592 8.75592l0 0c-4.8357544 0 -8.755859 -3.920166 -8.755859 -8.75592z" fill-rule="evenodd"></path><path stroke="#595959" stroke-width="1.0" stroke-linejoin="round" stroke-linecap="butt" d="m764.6352 423.5092l0 0c0 -4.8357544 3.920105 -8.75589 8.755859 -8.75589l0 0c2.3222046 0 4.5493164 0.92248535 6.1914062 2.5645447c1.6420288 1.6420288 2.5645142 3.8691406 2.5645142 6.191345l0 0c0 4.8357544 -3.920166 8.75592 -8.75592 8.75592l0 0c-4.8357544 0 -8.755859 -3.920166 -8.755859 -8.75592z" fill-rule="evenodd"></path><path fill="#eeeeee" d="m777.65094 319.55643l0 0c0 -4.8357544 3.920105 -8.75589 8.755859 -8.75589l0 0c2.3222656 0 4.5493164 0.92248535 6.1914062 2.5645447c1.6420288 1.6420288 2.5645142 3.8691406 2.5645142 6.191345l0 0c0 4.8357544 -3.920166 8.75592 -8.75592 8.75592l0 0c-4.8357544 0 -8.755859 -3.920166 -8.755859 -8.75592z" fill-rule="evenodd"></path><path stroke="#595959" stroke-width="1.0" stroke-linejoin="round" stroke-linecap="butt" d="m777.65094 319.55643l0 0c0 -4.8357544 3.920105 -8.75589 8.755859 -8.75589l0 0c2.3222656 0 4.5493164 0.92248535 6.1914062 2.5645447c1.6420288 1.6420288 2.5645142 3.8691406 2.5645142 6.191345l0 0c0 4.8357544 -3.920166 8.75592 -8.75592 8.75592l0 0c-4.8357544 0 -8.755859 -3.920166 -8.755859 -8.75592z" fill-rule="evenodd"></path><path fill="#000000" fill-opacity="0.0" d="m91.77165 496.6614l273.3228 0l0 41.95279l-273.3228 0z" fill-rule="evenodd"></path><path fill="#000000" d="m198.23401 511.23767l-5.0 12.34375l-1.59375 0l-5.0 -12.34375l1.515625 0l4.28125 10.765625l4.265625 -10.765625l1.53125 0zm8.5442505 10.84375q-1.109375 1.65625 -3.328125 1.65625q-2.015625 0 -3.296875 -1.40625q-1.21875 -1.375 -1.21875 -3.421875q0 -2.03125 1.21875 -3.40625q1.28125 -1.40625 3.375 -1.40625q2.109375 0 3.25 1.671875l0 -1.515625l1.40625 0l0 9.328125l-1.40625 0l0 -1.5zm-3.15625 0.375q1.515625 0 2.390625 -1.046875q0.84375 -0.984375 0.84375 -2.5q0 -1.5 -0.84375 -2.484375q-0.875 -1.046875 -2.390625 -1.046875q-1.484375 0 -2.421875 1.046875q-0.875 0.984375 -0.875 2.484375q0 1.515625 0.875 2.5q0.9375 1.046875 2.421875 1.046875zm11.912964 -8.359375l0 1.40625l-0.171875 0q-1.515625 0 -2.46875 1.21875q-0.890625 1.15625 -0.890625 2.75l0 4.109375l-1.390625 0l0 -9.328125l1.390625 0l0 2.296875q0.453125 -1.453125 1.9375 -2.140625q0.625 -0.3125 1.5 -0.3125l0.09375 0zm1.5145264 0.15625l1.390625 0l0 9.328125l-1.390625 0l0 -9.328125zm1.453125 -3.390625l0 1.828125l-1.515625 0l0 -1.828125l1.515625 0zm9.637039 11.21875q-1.109375 1.65625 -3.328125 1.65625q-2.015625 0 -3.296875 -1.40625q-1.21875 -1.375 -1.21875 -3.421875q0 -2.03125 1.21875 -3.40625q1.28125 -1.40625 3.375 -1.40625q2.109375 0 3.25 1.671875l0 -1.515625l1.40625 0l0 9.328125l-1.40625 0l0 -1.5zm-3.15625 0.375q1.515625 0 2.390625 -1.046875q0.84375 -0.984375 0.84375 -2.5q0 -1.5 -0.84375 -2.484375q-0.875 -1.046875 -2.390625 -1.046875q-1.484375 0 -2.421875 1.046875q-0.875 0.984375 -0.875 2.484375q0 1.515625 0.875 2.5q0.9375 1.046875 2.421875 1.046875zm8.381714 -6.6875q1.140625 -1.671875 3.34375 -1.671875q2.015625 0 3.265625 1.40625q1.25 1.375 1.25 3.40625q0 2.046875 -1.25 3.421875q-1.25 1.40625 -3.375 1.40625q-2.109375 0 -3.234375 -1.65625l0 1.5l-1.390625 0l0 -13.0625l1.390625 0l0 5.25zm3.15625 6.6875q1.484375 0 2.421875 -1.046875q0.875 -0.984375 0.875 -2.5q0 -1.5 -0.875 -2.484375q-0.9375 -1.046875 -2.421875 -1.046875q-1.515625 0 -2.390625 1.046875q-0.84375 0.984375 -0.84375 2.484375q0 1.515625 0.84375 2.5q0.875 1.046875 2.390625 1.046875zm7.9255676 1.125l-1.390625 0l0 -13.0625l1.390625 0l0 13.0625zm6.590164 -1.125q1.875 0 2.703125 -1.5625l1.53125 0q-0.484375 1.265625 -1.546875 2.0625q-1.046875 0.78125 -2.703125 0.78125q-2.109375 0 -3.4375 -1.40625q-1.28125 -1.359375 -1.28125 -3.421875q0 -2.0625 1.21875 -3.40625q1.3125 -1.40625 3.40625 -1.40625q2.078125 0 3.390625 1.40625q1.234375 1.34375 1.234375 3.40625l0 0.5625l-7.8125 0q0.140625 1.296875 1.015625 2.125q0.90625 0.859375 2.28125 0.859375zm-0.109375 -7.078125q-1.296875 0 -2.171875 0.796875q-0.8125 0.765625 -1.0 2.0l6.34375 0q-0.1875 -1.234375 -1.015625 -2.0q-0.875 -0.796875 -2.15625 -0.796875zm15.630951 -4.140625l0 12.34375l-1.40625 0l0 -11.0l-2.609375 0l0 -1.34375l4.015625 0z" fill-rule="nonzero"></path><path fill="#000000" fill-opacity="0.0" d="m594.9055 496.6614l273.3228 0l0 41.95279l-273.3228 0z" fill-rule="evenodd"></path><path fill="#000000" d="m701.36786 511.23767l-5.0 12.34375l-1.59375 0l-5.0 -12.34375l1.515625 0l4.28125 10.765625l4.265625 -10.765625l1.53125 0zm8.5442505 10.84375q-1.109375 1.65625 -3.328125 1.65625q-2.015625 0 -3.296875 -1.40625q-1.21875 -1.375 -1.21875 -3.421875q0 -2.03125 1.21875 -3.40625q1.28125 -1.40625 3.375 -1.40625q2.109375 0 3.25 1.671875l0 -1.515625l1.40625 0l0 9.328125l-1.40625 0l0 -1.5zm-3.15625 0.375q1.515625 0 2.390625 -1.046875q0.84375 -0.984375 0.84375 -2.5q0 -1.5 -0.84375 -2.484375q-0.875 -1.046875 -2.390625 -1.046875q-1.484375 0 -2.421875 1.046875q-0.875 0.984375 -0.875 2.484375q0 1.515625 0.875 2.5q0.9375 1.046875 2.421875 1.046875zm11.912964 -8.359375l0 1.40625l-0.171875 0q-1.515625 0 -2.46875 1.21875q-0.890625 1.15625 -0.890625 2.75l0 4.109375l-1.390625 0l0 -9.328125l1.390625 0l0 2.296875q0.453125 -1.453125 1.9375 -2.140625q0.625 -0.3125 1.5 -0.3125l0.09375 0zm1.5145264 0.15625l1.390625 0l0 9.328125l-1.390625 0l0 -9.328125zm1.453125 -3.390625l0 1.828125l-1.515625 0l0 -1.828125l1.515625 0zm9.637024 11.21875q-1.109375 1.65625 -3.328125 1.65625q-2.015625 0 -3.296875 -1.40625q-1.21875 -1.375 -1.21875 -3.421875q0 -2.03125 1.21875 -3.40625q1.28125 -1.40625 3.375 -1.40625q2.109375 0 3.25 1.671875l0 -1.515625l1.40625 0l0 9.328125l-1.40625 0l0 -1.5zm-3.15625 0.375q1.515625 0 2.390625 -1.046875q0.84375 -0.984375 0.84375 -2.5q0 -1.5 -0.84375 -2.484375q-0.875 -1.046875 -2.390625 -1.046875q-1.484375 0 -2.421875 1.046875q-0.875 0.984375 -0.875 2.484375q0 1.515625 0.875 2.5q0.9375 1.046875 2.421875 1.046875zm8.381714 -6.6875q1.140625 -1.671875 3.34375 -1.671875q2.015625 0 3.265625 1.40625q1.25 1.375 1.25 3.40625q0 2.046875 -1.25 3.421875q-1.25 1.40625 -3.375 1.40625q-2.109375 0 -3.234375 -1.65625l0 1.5l-1.390625 0l0 -13.0625l1.390625 0l0 5.25zm3.15625 6.6875q1.484375 0 2.421875 -1.046875q0.875 -0.984375 0.875 -2.5q0 -1.5 -0.875 -2.484375q-0.9375 -1.046875 -2.421875 -1.046875q-1.515625 0 -2.390625 1.046875q-0.84375 0.984375 -0.84375 2.484375q0 1.515625 0.84375 2.5q0.875 1.046875 2.390625 1.046875zm7.925598 1.125l-1.390625 0l0 -13.0625l1.390625 0l0 13.0625zm6.590149 -1.125q1.875 0 2.703125 -1.5625l1.53125 0q-0.484375 1.265625 -1.546875 2.0625q-1.046875 0.78125 -2.703125 0.78125q-2.109375 0 -3.4375 -1.40625q-1.28125 -1.359375 -1.28125 -3.421875q0 -2.0625 1.21875 -3.40625q1.3125 -1.40625 3.40625 -1.40625q2.078125 0 3.390625 1.40625q1.234375 1.34375 1.234375 3.40625l0 0.5625l-7.8125 0q0.140625 1.296875 1.015625 2.125q0.90625 0.859375 2.28125 0.859375zm-0.109375 -7.078125q-1.296875 0 -2.171875 0.796875q-0.8125 0.765625 -1.0 2.0l6.34375 0q-0.1875 -1.234375 -1.015625 -2.0q-0.875 -0.796875 -2.15625 -0.796875zm16.193481 1.625q1.078125 0.40625 1.671875 1.21875q0.59375 0.8125 0.59375 1.734375q0 0.90625 -0.328125 1.59375q-0.3125 0.671875 -0.890625 1.15625q-1.203125 1.03125 -2.96875 1.03125q-1.75 0 -3.0 -1.0q-1.25 -1.0 -1.40625 -2.421875l1.421875 0q0.140625 0.859375 0.984375 1.453125q0.859375 0.59375 2.0 0.59375q1.28125 0 2.0625 -0.671875q0.734375 -0.625 0.734375 -1.609375q0 -0.984375 -0.75 -1.65625q-0.78125 -0.703125 -1.921875 -0.703125l-1.421875 0l0 -1.28125l1.25 0q0.96875 0 1.703125 -0.5625q0.734375 -0.5625 0.734375 -1.453125q0 -0.90625 -0.625 -1.4375q-0.609375 -0.546875 -1.796875 -0.546875q-1.1875 0 -1.875 0.53125q-0.671875 0.515625 -0.796875 1.21875l-1.375 0q0.140625 -1.21875 1.140625 -2.125q1.125 -0.984375 2.828125 -0.984375q1.78125 0 2.84375 0.9375q1.046875 0.890625 1.046875 2.34375q0 0.859375 -0.625 1.6875q-0.5625 0.765625 -1.234375 0.953125z" fill-rule="nonzero"></path><path fill="#000000" fill-opacity="0.0" d="m49.818897 496.6614l0 -273.3228l41.952755 0l0 273.3228z" fill-rule="evenodd"></path><path fill="#000000" d="m64.39515 390.19907l12.34375 5.0l0 1.59375l-12.34375 5.0l0 -1.515625l10.765625 -4.28125l-10.765625 -4.265625l0 -1.53125zm10.84375 -8.5442505q1.65625 1.109375 1.65625 3.328125q0 2.015625 -1.40625 3.296875q-1.375 1.21875 -3.421875 1.21875q-2.03125 0 -3.40625 -1.21875q-1.40625 -1.28125 -1.40625 -3.375q0 -2.109375 1.671875 -3.25l-1.515625 0l0 -1.40625l9.328125 0l0 1.40625l-1.5 0zm0.375 3.15625q0 -1.515625 -1.046875 -2.390625q-0.984375 -0.84375 -2.5 -0.84375q-1.5 0 -2.484375 0.84375q-1.046875 0.875 -1.046875 2.390625q0 1.484375 1.046875 2.421875q0.984375 0.875 2.484375 0.875q1.515625 0 2.5 -0.875q1.046875 -0.9375 1.046875 -2.421875zm-8.359375 -11.912964l1.40625 0l0 0.171875q0 1.515625 1.21875 2.46875q1.15625 0.890625 2.75 0.890625l4.109375 0l0 1.390625l-9.328125 0l0 -1.390625l2.296875 0q-1.453125 -0.453125 -2.140625 -1.9375q-0.3125 -0.625 -0.3125 -1.5l0 -0.09375zm0.15625 -1.5145264l0 -1.390625l9.328125 0l0 1.390625l-9.328125 0zm-3.390625 -1.453125l1.828125 0l0 1.515625l-1.828125 0l0 -1.515625zm11.21875 -9.637054q1.65625 1.109375 1.65625 3.328125q0 2.015625 -1.40625 3.296875q-1.375 1.21875 -3.421875 1.21875q-2.03125 0 -3.40625 -1.21875q-1.40625 -1.28125 -1.40625 -3.375q0 -2.109375 1.671875 -3.25l-1.515625 0l0 -1.40625l9.328125 0l0 1.40625l-1.5 0zm0.375 3.15625q0 -1.515625 -1.046875 -2.390625q-0.984375 -0.84375 -2.5 -0.84375q-1.5 0 -2.484375 0.84375q-1.046875 0.875 -1.046875 2.390625q0 1.484375 1.046875 2.421875q0.984375 0.875 2.484375 0.875q1.515625 0 2.5 -0.875q1.046875 -0.9375 1.046875 -2.421875zm-6.6875 -8.381714q-1.671875 -1.140625 -1.671875 -3.34375q0 -2.015625 1.40625 -3.265625q1.375 -1.25 3.40625 -1.25q2.046875 0 3.421875 1.25q1.40625 1.25 1.40625 3.375q0 2.109375 -1.65625 3.234375l1.5 0l0 1.390625l-13.062504 0l0 -1.390625l5.250004 0zm6.6875 -3.15625q0 -1.484375 -1.046875 -2.421875q-0.984375 -0.875 -2.5 -0.875q-1.5 0 -2.484375 0.875q-1.046875 0.9375 -1.046875 2.421875q0 1.515625 1.046875 2.390625q0.984375 0.84375 2.484375 0.84375q1.515625 0 2.5 -0.84375q1.046875 -0.875 1.046875 -2.390625zm1.125 -7.9255676l0 1.390625l-13.062504 0l0 -1.390625l13.062504 0zm-1.125 -6.590149q0 -1.875 -1.5625 -2.703125l0 -1.53125q1.265625 0.484375 2.0625 1.546875q0.78125 1.046875 0.78125 2.703125q0 2.109375 -1.40625 3.4375q-1.359375 1.28125 -3.421875 1.28125q-2.0625 0 -3.40625 -1.21875q-1.40625 -1.3125 -1.40625 -3.40625q0 -2.078125 1.40625 -3.390625q1.34375 -1.234375 3.40625 -1.234375l0.5625 0l0 7.8125q1.296875 -0.140625 2.125 -1.015625q0.859375 -0.90625 0.859375 -2.28125zm-7.078125 0.109375q0 1.296875 0.796875 2.171875q0.765625 0.8125 2.0 1.0l0 -6.34375q-1.234375 0.1875 -2.0 1.015625q-0.796875 0.875 -0.796875 2.15625zm-0.609375 -18.4122q0.8125 0 1.5625 0.484375q0.734375 0.46875 1.390625 1.203125q0.65625 0.71875 1.234375 1.578125q0.578125 0.84375 1.125 1.59375q0.546875 0.734375 1.078125 1.25q0.53125 0.515625 1.078125 0.578125l0 -6.640625l1.34375 0l0 8.296875l-0.765625 0q-0.90625 0 -1.65625 -0.515625q-0.765625 -0.515625 -1.421875 -1.28125q-0.671875 -0.78125 -1.25 -1.671875q-0.59375 -0.890625 -1.1875 -1.671875q-0.609375 -0.78125 -1.21875 -1.28125q-0.609375 -0.515625 -1.328125 -0.515625q-1.078125 0 -1.6875 0.71875q-0.625 0.71875 -0.625 2.0q0 1.28125 0.5625 2.0625q0.546875 0.78125 1.578125 0.921875l0 1.40625q-1.5625 -0.15625 -2.53125 -1.375q-0.96875 -1.203125 -0.96875 -2.921875q0 -1.953125 1.046875 -3.109375q1.0 -1.109375 2.640625 -1.109375z" fill-rule="nonzero"></path><path fill="#000000" fill-opacity="0.0" d="m550.3963 496.6614l0 -273.3228l41.95276 0l0 273.3228z" fill-rule="evenodd"></path><path fill="#000000" d="m564.9726 390.19907l12.34375 5.0l0 1.59375l-12.34375 5.0l0 -1.515625l10.765625 -4.28125l-10.765625 -4.265625l0 -1.53125zm10.84375 -8.5442505q1.65625 1.109375 1.65625 3.328125q0 2.015625 -1.40625 3.296875q-1.375 1.21875 -3.421875 1.21875q-2.03125 0 -3.40625 -1.21875q-1.40625 -1.28125 -1.40625 -3.375q0 -2.109375 1.671875 -3.25l-1.515625 0l0 -1.40625l9.328125 0l0 1.40625l-1.5 0zm0.375 3.15625q0 -1.515625 -1.046875 -2.390625q-0.984375 -0.84375 -2.5 -0.84375q-1.5 0 -2.484375 0.84375q-1.046875 0.875 -1.046875 2.390625q0 1.484375 1.046875 2.421875q0.984375 0.875 2.484375 0.875q1.515625 0 2.5 -0.875q1.046875 -0.9375 1.046875 -2.421875zm-8.359375 -11.912964l1.40625 0l0 0.171875q0 1.515625 1.21875 2.46875q1.15625 0.890625 2.75 0.890625l4.109375 0l0 1.390625l-9.328125 0l0 -1.390625l2.296875 0q-1.453125 -0.453125 -2.140625 -1.9375q-0.3125 -0.625 -0.3125 -1.5l0 -0.09375zm0.15625 -1.5145264l0 -1.390625l9.328125 0l0 1.390625l-9.328125 0zm-3.390625 -1.453125l1.828125 0l0 1.515625l-1.828125 0l0 -1.515625zm11.21875 -9.637054q1.65625 1.109375 1.65625 3.328125q0 2.015625 -1.40625 3.296875q-1.375 1.21875 -3.421875 1.21875q-2.03125 0 -3.40625 -1.21875q-1.40625 -1.28125 -1.40625 -3.375q0 -2.109375 1.671875 -3.25l-1.515625 0l0 -1.40625l9.328125 0l0 1.40625l-1.5 0zm0.375 3.15625q0 -1.515625 -1.046875 -2.390625q-0.984375 -0.84375 -2.5 -0.84375q-1.5 0 -2.484375 0.84375q-1.046875 0.875 -1.046875 2.390625q0 1.484375 1.046875 2.421875q0.984375 0.875 2.484375 0.875q1.515625 0 2.5 -0.875q1.046875 -0.9375 1.046875 -2.421875zm-6.6875 -8.381714q-1.671875 -1.140625 -1.671875 -3.34375q0 -2.015625 1.40625 -3.265625q1.375 -1.25 3.40625 -1.25q2.046875 0 3.421875 1.25q1.40625 1.25 1.40625 3.375q0 2.109375 -1.65625 3.234375l1.5 0l0 1.390625l-13.0625 0l0 -1.390625l5.25 0zm6.6875 -3.15625q0 -1.484375 -1.046875 -2.421875q-0.984375 -0.875 -2.5 -0.875q-1.5 0 -2.484375 0.875q-1.046875 0.9375 -1.046875 2.421875q0 1.515625 1.046875 2.390625q0.984375 0.84375 2.484375 0.84375q1.515625 0 2.5 -0.84375q1.046875 -0.875 1.046875 -2.390625zm1.125 -7.9255676l0 1.390625l-13.0625 0l0 -1.390625l13.0625 0zm-1.125 -6.590149q0 -1.875 -1.5625 -2.703125l0 -1.53125q1.265625 0.484375 2.0625 1.546875q0.78125 1.046875 0.78125 2.703125q0 2.109375 -1.40625 3.4375q-1.359375 1.28125 -3.421875 1.28125q-2.0625 0 -3.40625 -1.21875q-1.40625 -1.3125 -1.40625 -3.40625q0 -2.078125 1.40625 -3.390625q1.34375 -1.234375 3.40625 -1.234375l0.5625 0l0 7.8125q1.296875 -0.140625 2.125 -1.015625q0.859375 -0.90625 0.859375 -2.28125zm-7.078125 0.109375q0 1.296875 0.796875 2.171875q0.765625 0.8125 2.0 1.0l0 -6.34375q-1.234375 0.1875 -2.0 1.015625q-0.796875 0.875 -0.796875 2.15625zm3.796875 -18.63095l1.25 0l0 1.65625l3.15625 0l0 1.40625l-3.15625 0l0 5.890625l-1.359375 0l-7.828125 -5.1875l0 -2.109375l7.9375 0l0 -1.65625zm0 3.0625l-6.75 0l6.75 4.578125l0 -4.578125z" fill-rule="nonzero"></path></g></svg>

