<?xml version="1.0" standalone="yes"?>

<svg version="1.1" viewBox="0.0 0.0 960.0 720.0" fill="none" stroke="none" stroke-linecap="square" stroke-miterlimit="10" xmlns="http://www.w3.org/2000/svg" xmlns:xlink="http://www.w3.org/1999/xlink"><clipPath id="g35e10bcdf7_0_292.0"><path d="m0 0l960.0 0l0 720.0l-960.0 0l0 -720.0z" clip-rule="nonzero"></path></clipPath><g clip-path="url(#g35e10bcdf7_0_292.0)"><path fill="#ffffff" d="m0 0l960.0 0l0 720.0l-960.0 0z" fill-rule="evenodd"></path><path fill="#000000" fill-opacity="0.0" d="m343.3386 496.6614l0 -273.3228" fill-rule="evenodd"></path><path stroke="#595959" stroke-width="4.0" stroke-linejoin="round" stroke-linecap="butt" d="m343.3386 496.6614l0 -249.32283" fill-rule="evenodd"></path><path fill="#595959" stroke="#595959" stroke-width="4.0" stroke-linecap="butt" d="m349.94553 247.33858l-6.6069336 -18.15239l-6.6069336 18.15239z" fill-rule="evenodd"></path><path fill="#000000" fill-opacity="0.0" d="m343.3386 496.6614l273.32285 0" fill-rule="evenodd"></path><path stroke="#595959" stroke-width="4.0" stroke-linejoin="round" stroke-linecap="butt" d="m343.3386 496.6614l249.32285 0" fill-rule="evenodd"></path><path fill="#595959" stroke="#595959" stroke-width="4.0" stroke-linecap="butt" d="m592.66144 503.26834l18.152344 -6.6069336l-18.152344 -6.6069336z" fill-rule="evenodd"></path><path fill="#eeeeee" d="m425.95538 311.04462l0 0c0 -4.8357544 3.9201355 -8.75589 8.75589 -8.75589l0 0c2.322235 0 4.5493164 0.92248535 6.1913757 2.5645447c1.6420593 1.6420288 2.5645447 3.8691406 2.5645447 6.191345l0 0c0 4.8357544 -3.920166 8.75592 -8.75592 8.75592l0 0c-4.8357544 0 -8.75589 -3.920166 -8.75589 -8.75592z" fill-rule="evenodd"></path><path stroke="#595959" stroke-width="1.0" stroke-linejoin="round" stroke-linecap="butt" d="m425.95538 311.04462l0 0c0 -4.8357544 3.9201355 -8.75589 8.75589 -8.75589l0 0c2.322235 0 4.5493164 0.92248535 6.1913757 2.5645447c1.6420593 1.6420288 2.5645447 3.8691406 2.5645447 6.191345l0 0c0 4.8357544 -3.920166 8.75592 -8.75592 8.75592l0 0c-4.8357544 0 -8.75589 -3.920166 -8.75589 -8.75592z" fill-rule="evenodd"></path><path fill="#eeeeee" d="m411.5328 347.04462l0 0c0 -4.8357544 3.920166 -8.75589 8.75592 -8.75589l0 0c2.3222046 0 4.549286 0.92248535 6.191345 2.5645447c1.6420593 1.6420288 2.5645447 3.8691406 2.5645447 6.191345l0 0c0 4.8357544 -3.9201355 8.75592 -8.75589 8.75592l0 0c-4.8357544 0 -8.75592 -3.920166 -8.75592 -8.75592z" fill-rule="evenodd"></path><path stroke="#595959" stroke-width="1.0" stroke-linejoin="round" stroke-linecap="butt" d="m411.5328 347.04462l0 0c0 -4.8357544 3.920166 -8.75589 8.75592 -8.75589l0 0c2.3222046 0 4.549286 0.92248535 6.191345 2.5645447c1.6420593 1.6420288 2.5645447 3.8691406 2.5645447 6.191345l0 0c0 4.8357544 -3.9201355 8.75592 -8.75589 8.75592l0 0c-4.8357544 0 -8.75592 -3.920166 -8.75592 -8.75592z" fill-rule="evenodd"></path><path fill="#eeeeee" d="m472.44357 316.37796l0 0c0 -4.8357544 3.9201355 -8.75592 8.75589 -8.75592l0 0c2.322235 0 4.5493164 0.92251587 6.1913757 2.5645447c1.6420593 1.6420593 2.5645447 3.8691711 2.5645447 6.1913757l0 0c0 4.8357544 -3.920166 8.75589 -8.75592 8.75589l0 0c-4.8357544 0 -8.75589 -3.9201355 -8.75589 -8.75589z" fill-rule="evenodd"></path><path stroke="#595959" stroke-width="1.0" stroke-linejoin="round" stroke-linecap="butt" d="m472.44357 316.37796l0 0c0 -4.8357544 3.9201355 -8.75592 8.75589 -8.75592l0 0c2.322235 0 4.5493164 0.92251587 6.1913757 2.5645447c1.6420593 1.6420593 2.5645447 3.8691711 2.5645447 6.1913757l0 0c0 4.8357544 -3.920166 8.75589 -8.75592 8.75589l0 0c-4.8357544 0 -8.75589 -3.9201355 -8.75589 -8.75589z" fill-rule="evenodd"></path><path fill="#eeeeee" d="m429.04462 383.1286l0 0c0 -4.8357544 3.920166 -8.75589 8.75592 -8.75589l0 0c2.3222046 0 4.549286 0.92248535 6.191345 2.5645447c1.6420593 1.6420288 2.5645447 3.8691406 2.5645447 6.191345l0 0c0 4.8357544 -3.9201355 8.75592 -8.75589 8.75592l0 0c-4.8357544 0 -8.75592 -3.920166 -8.75592 -8.75592z" fill-rule="evenodd"></path><path stroke="#595959" stroke-width="1.0" stroke-linejoin="round" stroke-linecap="butt" d="m429.04462 383.1286l0 0c0 -4.8357544 3.920166 -8.75589 8.75592 -8.75589l0 0c2.3222046 0 4.549286 0.92248535 6.191345 2.5645447c1.6420593 1.6420288 2.5645447 3.8691406 2.5645447 6.191345l0 0c0 4.8357544 -3.9201355 8.75592 -8.75589 8.75592l0 0c-4.8357544 0 -8.75592 -3.920166 -8.75592 -8.75592z" fill-rule="evenodd"></path><path fill="#eeeeee" d="m500.79004 364.55643l0 0c0 -4.8357544 3.9201355 -8.75589 8.75589 -8.75589l0 0c2.3222046 0 4.549286 0.92248535 6.1913757 2.5645447c1.6420288 1.6420288 2.5645142 3.8691406 2.5645142 6.191345l0 0c0 4.8357544 -3.920105 8.75592 -8.75589 8.75592l0 0c-4.8357544 0 -8.75589 -3.920166 -8.75589 -8.75592z" fill-rule="evenodd"></path><path stroke="#595959" stroke-width="1.0" stroke-linejoin="round" stroke-linecap="butt" d="m500.79004 364.55643l0 0c0 -4.8357544 3.9201355 -8.75589 8.75589 -8.75589l0 0c2.3222046 0 4.549286 0.92248535 6.1913757 2.5645447c1.6420288 1.6420288 2.5645142 3.8691406 2.5645142 6.191345l0 0c0 4.8357544 -3.920105 8.75592 -8.75589 8.75592l0 0c-4.8357544 0 -8.75589 -3.920166 -8.75589 -8.75592z" fill-rule="evenodd"></path><path fill="#eeeeee" d="m489.95538 408.95538l0 0c0 -4.8357544 3.9201355 -8.75592 8.75589 -8.75592l0 0c2.322235 0 4.5493164 0.92251587 6.1913757 2.5645447c1.6420593 1.6420593 2.5645447 3.8691711 2.5645447 6.1913757l0 0c0 4.8357544 -3.920166 8.75589 -8.75592 8.75589l0 0c-4.8357544 0 -8.75589 -3.9201355 -8.75589 -8.75589z" fill-rule="evenodd"></path><path stroke="#595959" stroke-width="1.0" stroke-linejoin="round" stroke-linecap="butt" d="m489.95538 408.95538l0 0c0 -4.8357544 3.9201355 -8.75592 8.75589 -8.75592l0 0c2.322235 0 4.5493164 0.92251587 6.1913757 2.5645447c1.6420593 1.6420593 2.5645447 3.8691711 2.5645447 6.1913757l0 0c0 4.8357544 -3.920166 8.75589 -8.75592 8.75589l0 0c-4.8357544 0 -8.75589 -3.9201355 -8.75589 -8.75589z" fill-rule="evenodd"></path><path fill="#eeeeee" d="m530.9554 394.95538l0 0c0 -4.8357544 3.920166 -8.75592 8.75592 -8.75592l0 0c2.3222046 0 4.5493164 0.92251587 6.191345 2.5645447c1.6420288 1.6420593 2.5645142 3.8691711 2.5645142 6.1913757l0 0c0 4.8357544 -3.920105 8.75589 -8.755859 8.75589l0 0c-4.8357544 0 -8.75592 -3.9201355 -8.75592 -8.75589z" fill-rule="evenodd"></path><path stroke="#595959" stroke-width="1.0" stroke-linejoin="round" stroke-linecap="butt" d="m530.9554 394.95538l0 0c0 -4.8357544 3.920166 -8.75592 8.75592 -8.75592l0 0c2.3222046 0 4.5493164 0.92251587 6.191345 2.5645447c1.6420288 1.6420593 2.5645142 3.8691711 2.5645142 6.1913757l0 0c0 4.8357544 -3.920105 8.75589 -8.755859 8.75589l0 0c-4.8357544 0 -8.75592 -3.9201355 -8.75592 -8.75589z" fill-rule="evenodd"></path><path fill="#eeeeee" d="m472.44357 355.59973l0 0c0 -4.8357544 3.9201355 -8.75589 8.75589 -8.75589l0 0c2.322235 0 4.5493164 0.92248535 6.1913757 2.5645447c1.6420593 1.6420288 2.5645447 3.8691406 2.5645447 6.191345l0 0c0 4.8357544 -3.920166 8.75592 -8.75592 8.75592l0 0c-4.8357544 0 -8.75589 -3.920166 -8.75589 -8.75592z" fill-rule="evenodd"></path><path stroke="#595959" stroke-width="1.0" stroke-linejoin="round" stroke-linecap="butt" d="m472.44357 355.59973l0 0c0 -4.8357544 3.9201355 -8.75589 8.75589 -8.75589l0 0c2.322235 0 4.5493164 0.92248535 6.1913757 2.5645447c1.6420593 1.6420288 2.5645447 3.8691406 2.5645447 6.191345l0 0c0 4.8357544 -3.920166 8.75592 -8.75592 8.75592l0 0c-4.8357544 0 -8.75589 -3.920166 -8.75589 -8.75592z" fill-rule="evenodd"></path></g></svg>

