<?xml version="1.0" standalone="yes"?>

<svg version="1.1" viewBox="0.0 0.0 960.0 720.0" fill="none" stroke="none" stroke-linecap="square" stroke-miterlimit="10" xmlns="http://www.w3.org/2000/svg" xmlns:xlink="http://www.w3.org/1999/xlink"><clipPath id="g251f6f7a4a_0_0.0"><path d="m0 0l960.0 0l0 720.0l-960.0 0l0 -720.0z" clip-rule="nonzero"></path></clipPath><g clip-path="url(#g251f6f7a4a_0_0.0)"><path fill="#ffffff" d="m0 0l960.0 0l0 720.0l-960.0 0z" fill-rule="evenodd"></path><path fill="#000000" fill-opacity="0.0" d="m635.0551 162.95801l31.40155 0l0 39.496063l-31.40155 0z" fill-rule="evenodd"></path><path stroke="#595959" stroke-width="8.0" stroke-linejoin="round" stroke-linecap="butt" d="m635.0551 162.95801l31.40155 0l0 39.496063l-31.40155 0z" fill-rule="evenodd"></path><path fill="#ffffff" d="m293.5433 96.04462l341.5118 0l0 173.32285l-341.5118 0z" fill-rule="evenodd"></path><path stroke="#595959" stroke-width="8.0" stroke-linejoin="round" stroke-linecap="butt" d="m293.5433 96.04462l341.5118 0l0 173.32285l-341.5118 0z" fill-rule="evenodd"></path><path fill="#999999" d="m312.44882 112.83202l165.07086 0l0 139.74802l-165.07086 0z" fill-rule="evenodd"></path><path stroke="#595959" stroke-width="8.0" stroke-linejoin="round" stroke-linecap="butt" d="m312.44882 112.83202l165.07086 0l0 139.74802l-165.07086 0z" fill-rule="evenodd"></path></g></svg>

